<?xml version="1.0" encoding="UTF-8" standalone="no"?>
<!-- Created with Inkscape (http://www.inkscape.org/) -->

<svg
   xmlns:dc="http://purl.org/dc/elements/1.1/"
   xmlns:cc="http://creativecommons.org/ns#"
   xmlns:rdf="http://www.w3.org/1999/02/22-rdf-syntax-ns#"
   xmlns:svg="http://www.w3.org/2000/svg"
   xmlns="http://www.w3.org/2000/svg"
   xmlns:sodipodi="http://sodipodi.sourceforge.net/DTD/sodipodi-0.dtd"
   xmlns:inkscape="http://www.inkscape.org/namespaces/inkscape"
   width="154"
   height="40"
   viewBox="0 0 40.745833 10.583334"
   version="1.1"
   id="svg8"
   inkscape:version="0.92.1 r15371"
   sodipodi:docname="sze_logo.svg">
  <defs
     id="defs2">
    <clipPath
       id="clipPath4507"
       clipPathUnits="userSpaceOnUse">
      <path
         inkscape:connector-curvature="0"
         id="path4505"
         d="M 0,500 H 500 V 0 H 0 Z" />
    </clipPath>
  </defs>
  <sodipodi:namedview
     id="base"
     pagecolor="#ffffff"
     bordercolor="#666666"
     borderopacity="1.0"
     inkscape:pageopacity="0.0"
     inkscape:pageshadow="2"
     inkscape:zoom="4.7236295"
     inkscape:cx="94.572591"
     inkscape:cy="-17.102846"
     inkscape:document-units="mm"
     inkscape:current-layer="layer1"
     showgrid="false"
     units="px"
     inkscape:window-width="1920"
     inkscape:window-height="1137"
     inkscape:window-x="-8"
     inkscape:window-y="-8"
     inkscape:window-maximized="1" />
  <metadata
     id="metadata5">
    <rdf:RDF>
      <cc:Work
         rdf:about="">
        <dc:format>image/svg+xml</dc:format>
        <dc:type
           rdf:resource="http://purl.org/dc/dcmitype/StillImage" />
        <dc:title></dc:title>
      </cc:Work>
    </rdf:RDF>
  </metadata>
  <g
     inkscape:label="Layer 1"
     inkscape:groupmode="layer"
     id="layer1"
     transform="translate(0,-286.41665)">
    <g
       transform="matrix(0.09150842,0,0,-0.09150842,-1.542991,325.22254)"
       inkscape:label="SZE_UJ_LOGO"
       id="g4493">
      <path
         inkscape:connector-curvature="0"
         id="path4495"
         style="fill:#414142;fill-opacity:1;fill-rule:nonzero;stroke:none"
         d="M 110.7,314.534 H 17 v -6.278 h 93.7 z" />
      <path
         inkscape:connector-curvature="0"
         id="path4497"
         style="fill:#414142;fill-opacity:1;fill-rule:nonzero;stroke:none"
         d="M 110.7,339.521 H 17 v -6.248 h 93.7 z" />
      <path
         inkscape:connector-curvature="0"
         id="path4499"
         style="fill:#0083c9;fill-opacity:1;fill-rule:nonzero;stroke:none"
         d="M 110.7,327.027 H 41.987 v -6.248 H 110.7 Z" />
      <g
         id="g4501">
        <g
           clip-path="url(#clipPath4507)"
           id="g4503">
          <g
             transform="translate(41.9878,352.0142)"
             id="g4509">
            <path
               inkscape:connector-curvature="0"
               id="path4511"
               style="fill:#414142;fill-opacity:1;fill-rule:nonzero;stroke:none"
               d="m 0,0 v -6.254 c 37.953,0 68.722,30.767 68.722,68.722 H 62.468 C 62.468,27.968 34.5,0 0,0" />
          </g>
          <g
             transform="translate(41.9878,364.5073)"
             id="g4513">
            <path
               inkscape:connector-curvature="0"
               id="path4515"
               style="fill:#414142;fill-opacity:1;fill-rule:nonzero;stroke:none"
               d="m 0,0 v -6.246 c 31.05,0 56.22,25.17 56.22,56.22 H 49.974 C 49.974,22.373 27.599,0 0,0" />
          </g>
          <path
             inkscape:connector-curvature="0"
             id="path4517"
             style="fill:#414142;fill-opacity:1;fill-rule:nonzero;stroke:none"
             d="m 123.194,314.534 h 24.987 v -6.278 h -24.987 z" />
          <path
             inkscape:connector-curvature="0"
             id="path4519"
             style="fill:#414142;fill-opacity:1;fill-rule:nonzero;stroke:none"
             d="m 123.194,327.027 h 24.987 v -6.248 h -24.987 z" />
          <path
             inkscape:connector-curvature="0"
             id="path4521"
             style="fill:#414142;fill-opacity:1;fill-rule:nonzero;stroke:none"
             d="m 123.194,339.521 h 24.987 v -6.248 h -24.987 z" />
          <path
             inkscape:connector-curvature="0"
             id="path4523"
             style="fill:#414142;fill-opacity:1;fill-rule:nonzero;stroke:none"
             d="m 123.194,352.014 h 24.987 v -6.248 h -24.987 z" />
          <path
             inkscape:connector-curvature="0"
             id="path4525"
             style="fill:#414142;fill-opacity:1;fill-rule:nonzero;stroke:none"
             d="m 123.194,364.508 h 24.987 v -6.248 h -24.987 z" />
          <path
             inkscape:connector-curvature="0"
             id="path4527"
             style="fill:#414142;fill-opacity:1;fill-rule:nonzero;stroke:none"
             d="m 123.194,377.001 h 24.987 v -6.248 h -24.987 z" />
          <path
             inkscape:connector-curvature="0"
             id="path4529"
             style="fill:#414142;fill-opacity:1;fill-rule:nonzero;stroke:none"
             d="m 123.194,389.495 h 24.987 v -6.248 h -24.987 z" />
          <path
             inkscape:connector-curvature="0"
             id="path4531"
             style="fill:#414142;fill-opacity:1;fill-rule:nonzero;stroke:none"
             d="m 123.194,401.988 h 24.987 v -6.246 h -24.987 z" />
          <path
             inkscape:connector-curvature="0"
             id="path4533"
             style="fill:#414142;fill-opacity:1;fill-rule:nonzero;stroke:none"
             d="m 123.194,414.482 h 24.987 v -6.246 h -24.987 z" />
          <g
             transform="translate(201.1675,314.6802)"
             id="g4535">
            <path
               inkscape:connector-curvature="0"
               id="path4537"
               style="fill:#414142;fill-opacity:1;fill-rule:nonzero;stroke:none"
               d="m 0,0 c 0,-4.003 -2.421,-6.424 -6.445,-6.424 -4.048,0 -6.491,2.421 -6.491,6.424 v 9.064 h 1.76 V 0 c 0,-2.992 1.803,-4.73 4.731,-4.73 2.925,0 4.685,1.738 4.685,4.73 V 9.064 H 0 Z" />
          </g>
          <g
             transform="translate(216.0981,308.3447)"
             id="g4539">
            <path
               inkscape:connector-curvature="0"
               id="path4541"
               style="fill:#414142;fill-opacity:1;fill-rule:nonzero;stroke:none"
               d="M 0,0 -9.24,12.362 V 0 H -11 v 15.399 h 1.827 L 0.066,3.013 V 15.399 H 1.805 V 0 Z" />
          </g>
          <path
             inkscape:connector-curvature="0"
             id="path4543"
             style="fill:#414142;fill-opacity:1;fill-rule:nonzero;stroke:none"
             d="m 222.061,308.346 h 1.76 v 15.399 h -1.76 z" />
          <g
             transform="translate(232.0322,308.3447)"
             id="g4545">
            <path
               inkscape:connector-curvature="0"
               id="path4547"
               style="fill:#414142;fill-opacity:1;fill-rule:nonzero;stroke:none"
               d="m 0,0 -6.248,15.399 h 1.891 L 0.946,2.045 6.269,15.399 H 8.117 L 1.826,0 Z" />
          </g>
          <g
             transform="translate(243.9092,322.0503)"
             id="g4549">
            <path
               inkscape:connector-curvature="0"
               id="path4551"
               style="fill:#414142;fill-opacity:1;fill-rule:nonzero;stroke:none"
               d="M 0,0 V -5.061 H 7.766 V -6.754 H 0 v -5.28 h 8.976 v -1.672 H -1.76 V 1.693 H 8.69 V 0 Z" />
          </g>
          <g
             transform="translate(262.5732,313.25)"
             id="g4553">
            <path
               inkscape:connector-curvature="0"
               id="path4555"
               style="fill:#414142;fill-opacity:1;fill-rule:nonzero;stroke:none"
               d="m 0,0 c -0.33,-0.021 -0.683,-0.043 -1.034,-0.043 h -4.091 v -4.863 h -1.76 v 15.399 h 5.851 c 3.85,0 6.071,-1.89 6.071,-5.168 0,-2.552 -1.231,-4.269 -3.453,-4.994 L 5.192,-4.906 H 3.189 Z m -1.034,1.65 c 2.794,0 4.378,1.232 4.378,3.63 0,2.333 -1.584,3.52 -4.378,3.52 H -5.125 V 1.65 Z" />
          </g>
          <g
             transform="translate(280.501,322.3804)"
             id="g4557">
            <path
               inkscape:connector-curvature="0"
               id="path4559"
               style="fill:#414142;fill-opacity:1;fill-rule:nonzero;stroke:none"
               d="m 0,0 -0.749,-1.651 c -1.385,0.925 -3.014,1.299 -4.246,1.299 -1.979,0 -3.277,-0.747 -3.277,-2.045 0,-3.96 8.668,-1.894 8.645,-7.48 0,-2.574 -2.265,-4.224 -5.565,-4.224 -2.244,0 -4.445,0.968 -5.896,2.352 l 0.792,1.584 c 1.43,-1.384 3.387,-2.176 5.125,-2.176 2.222,0 3.609,0.901 3.609,2.376 0.021,4.048 -8.646,1.89 -8.646,7.413 0,2.419 2.134,3.981 5.322,3.981 C -3.102,1.429 -1.275,0.858 0,0" />
          </g>
          <path
             inkscape:connector-curvature="0"
             id="path4561"
             style="fill:#414142;fill-opacity:1;fill-rule:nonzero;stroke:none"
             d="m 284.054,308.346 h 1.76 v 15.399 h -1.76 z" />
          <g
             transform="translate(294.6064,322.0503)"
             id="g4563">
            <path
               inkscape:connector-curvature="0"
               id="path4565"
               style="fill:#414142;fill-opacity:1;fill-rule:nonzero;stroke:none"
               d="M 0,0 V -13.706 H -1.76 V 0 H -6.776 V 1.693 H 5.037 V 0 Z" />
          </g>
          <g
             transform="translate(308.3057,308.3447)"
             id="g4567">
            <path
               inkscape:connector-curvature="0"
               id="path4569"
               style="fill:#414142;fill-opacity:1;fill-rule:nonzero;stroke:none"
               d="m 0,0 h -1.739 v 5.213 l -5.962,10.186 h 1.826 L -0.88,7.37 4.048,15.399 H 5.853 L 0,5.28 Z" />
          </g>
          <g
             transform="translate(337.5205,316.0444)"
             id="g4571">
            <path
               inkscape:connector-curvature="0"
               id="path4573"
               style="fill:#414142;fill-opacity:1;fill-rule:nonzero;stroke:none"
               d="m 0,0 c 0,-4.333 -3.565,-7.787 -8.053,-7.787 -4.51,0 -8.072,3.454 -8.072,7.787 0,4.356 3.562,7.744 8.072,7.744 C -3.565,7.744 0,4.333 0,0 m -14.344,0 c 0,-3.387 2.859,-6.094 6.291,-6.094 3.432,0 6.247,2.707 6.247,6.094 0,3.389 -2.815,6.072 -6.247,6.072 -3.432,0 -6.291,-2.683 -6.291,-6.072" />
          </g>
          <g
             transform="translate(342.1973,322.0503)"
             id="g4575">
            <path
               inkscape:connector-curvature="0"
               id="path4577"
               style="fill:#414142;fill-opacity:1;fill-rule:nonzero;stroke:none"
               d="M 0,0 V -5.411 H 7.194 V -7.106 H 0 v -6.6 H -1.761 V 1.693 h 9.79 V 0 Z" />
          </g>
          <g
             transform="translate(371.3682,315.8687)"
             id="g4579">
            <path
               inkscape:connector-curvature="0"
               id="path4581"
               style="fill:#414142;fill-opacity:1;fill-rule:nonzero;stroke:none"
               d="m 0,0 v -5.589 c -1.518,-1.208 -3.653,-2.024 -5.721,-2.024 -4.466,0 -8.029,3.456 -8.029,7.789 0,4.333 3.587,7.744 8.117,7.744 2.134,0 4.203,-0.814 5.678,-2.112 L -0.969,4.488 C -2.222,5.61 -3.915,6.27 -5.633,6.27 c -3.519,0 -6.335,-2.707 -6.335,-6.094 0,-3.41 2.837,-6.117 6.357,-6.117 1.386,0 2.861,0.485 4.049,1.299 V 0 Z" />
          </g>
          <g
             transform="translate(380.3848,308.3447)"
             id="g4583">
            <path
               inkscape:connector-curvature="0"
               id="path4585"
               style="fill:#414142;fill-opacity:1;fill-rule:nonzero;stroke:none"
               d="M 0,0 H -1.738 V 5.213 L -7.7,15.399 h 1.826 L -0.88,7.37 4.048,15.399 H 5.854 L 0,5.28 Z" />
          </g>
          <g
             transform="translate(402.1113,316.0444)"
             id="g4587">
            <path
               inkscape:connector-curvature="0"
               id="path4589"
               style="fill:#414142;fill-opacity:1;fill-rule:nonzero;stroke:none"
               d="m 0,0 c 0,-4.333 -3.564,-7.787 -8.053,-7.787 -4.509,0 -8.072,3.454 -8.072,7.787 0,4.356 3.563,7.744 8.072,7.744 C -3.564,7.744 0,4.333 0,0 m -14.343,0 c 0,-3.387 2.859,-6.094 6.29,-6.094 3.433,0 6.248,2.707 6.248,6.094 0,3.389 -2.815,6.072 -6.248,6.072 -3.431,0 -6.29,-2.683 -6.29,-6.072 m 4.84,9.57 h -1.43 l 2.002,3.101 1.452,-0.747 z m 3.234,0 H -7.7 l 2.002,3.101 1.453,-0.747 z" />
          </g>
          <g
             transform="translate(411.9141,313.25)"
             id="g4591">
            <path
               inkscape:connector-curvature="0"
               id="path4593"
               style="fill:#414142;fill-opacity:1;fill-rule:nonzero;stroke:none"
               d="m 0,0 c -0.33,-0.021 -0.683,-0.043 -1.034,-0.043 h -4.091 v -4.863 h -1.76 v 15.399 h 5.851 c 3.85,0 6.072,-1.89 6.072,-5.168 0,-2.552 -1.232,-4.269 -3.454,-4.994 L 5.192,-4.906 H 3.189 Z m -1.034,1.65 c 2.795,0 4.379,1.232 4.379,3.63 0,2.333 -1.584,3.52 -4.379,3.52 H -5.125 V 1.65 Z" />
          </g>
          <g
             transform="translate(200.6055,406.7187)"
             id="g4595">
            <path
               inkscape:connector-curvature="0"
               id="path4597"
               style="fill:#414142;fill-opacity:1;fill-rule:nonzero;stroke:none"
               d="m 0,0 c -2.561,0 -4.297,-0.917 -4.297,-2.751 0,-6.231 18.011,-2.754 17.962,-14.924 0,-6.615 -5.746,-10.188 -13.229,-10.188 -5.555,0 -11.107,2.125 -14.924,5.362 l 3.044,6.228 c 3.477,-3.091 8.402,-5.072 11.974,-5.072 3.14,0 5.022,1.159 5.022,3.237 0,6.374 -18.011,2.655 -18.011,14.631 0,6.132 5.264,9.995 13.085,9.995 4.733,0 9.466,-1.449 12.846,-3.668 L 10.527,-3.477 C 6.954,-1.352 2.704,0 0,0" />
          </g>
          <g
             transform="translate(245.9062,412.8999)"
             id="g4599">
            <path
               inkscape:connector-curvature="0"
               id="path4601"
               style="fill:#414142;fill-opacity:1;fill-rule:nonzero;stroke:none"
               d="M 0,0 V -5.119 L -18.881,-27.428 H 0.29 l -0.047,-6.374 h -29.409 v 5.166 l 18.928,22.261 H -28.539 V 0 Z" />
          </g>
          <g
             transform="translate(276.8613,412.8999)"
             id="g4603">
            <path
               inkscape:connector-curvature="0"
               id="path4605"
               style="fill:#414142;fill-opacity:1;fill-rule:nonzero;stroke:none"
               d="m 0,0 v -6.325 h -18.108 v -7.341 h 16.32 v -6.327 h -16.32 v -7.484 H 0.53 v -6.325 H -25.738 V 0 Z M -4.587,8.402 -10.721,3.14 h -5.891 l 5.119,7.87 z" />
          </g>
          <g
             transform="translate(298.3076,406.5259)"
             id="g4607">
            <path
               inkscape:connector-curvature="0"
               id="path4609"
               style="fill:#414142;fill-opacity:1;fill-rule:nonzero;stroke:none"
               d="m 0,0 c -5.795,0 -10.285,-4.49 -10.285,-10.382 0,-5.891 4.49,-10.431 10.285,-10.431 3.041,0 6.375,1.545 8.789,3.96 l 4.49,-4.876 c -3.573,-3.67 -8.74,-6.038 -13.665,-6.038 -10.093,0 -17.722,7.484 -17.722,17.288 0,9.755 7.774,17.094 18.011,17.094 4.877,0 9.995,-2.173 13.329,-5.602 L 8.789,-4.394 C 6.471,-1.739 3.138,0 0,0" />
          </g>
          <g
             transform="translate(323.2158,412.8999)"
             id="g4611">
            <path
               inkscape:connector-curvature="0"
               id="path4613"
               style="fill:#414142;fill-opacity:1;fill-rule:nonzero;stroke:none"
               d="M 0,0 V -14.101 H 15.308 V 0 h 7.629 v -33.802 h -7.629 v 13.326 H 0 V -33.802 H -7.63 V 0 Z" />
          </g>
          <g
             transform="translate(379.0156,412.8999)"
             id="g4615">
            <path
               inkscape:connector-curvature="0"
               id="path4617"
               style="fill:#414142;fill-opacity:1;fill-rule:nonzero;stroke:none"
               d="m 0,0 v -6.325 h -18.108 v -7.341 h 16.32 v -6.327 h -16.32 v -7.484 H 0.53 v -6.325 H -25.738 V 0 Z" />
          </g>
          <g
             transform="translate(392.2676,412.8999)"
             id="g4619">
            <path
               inkscape:connector-curvature="0"
               id="path4621"
               style="fill:#414142;fill-opacity:1;fill-rule:nonzero;stroke:none"
               d="M 0,0 16.419,-21.731 V 0 h 7.243 V -33.802 H 16.708 L 0.337,-12.12 V -33.802 H -6.954 V 0 Z" />
          </g>
          <g
             transform="translate(439.0898,390.0107)"
             id="g4623">
            <path
               inkscape:connector-curvature="0"
               id="path4625"
               style="fill:#414142;fill-opacity:1;fill-rule:nonzero;stroke:none"
               d="M 0,0 V -10.914 H -7.63 V -0.193 L -20.137,22.89 h 7.678 L -3.813,7.727 4.636,22.89 h 7.677 z" />
          </g>
          <path
             inkscape:connector-curvature="0"
             id="path4627"
             style="fill:#414142;fill-opacity:1;fill-rule:nonzero;stroke:none"
             d="m 462,379.096 h -7.63 v 33.802 H 462 Z" />
          <g
             transform="translate(214.0005,369.833)"
             id="g4629">
            <path
               inkscape:connector-curvature="0"
               id="path4631"
               style="fill:#414142;fill-opacity:1;fill-rule:nonzero;stroke:none"
               d="m 0,0 v -6.325 h -18.108 v -7.341 h 16.32 v -6.327 h -16.32 v -7.484 H 0.53 v -6.325 H -25.738 V 0 Z" />
          </g>
          <g
             transform="translate(242.8354,353.0762)"
             id="g4633">
            <path
               inkscape:connector-curvature="0"
               id="path4635"
               style="fill:#414142;fill-opacity:1;fill-rule:nonzero;stroke:none"
               d="m 0,0 h 6.615 v -12.989 c -3.574,-2.608 -9.03,-4.396 -13.713,-4.396 -10.238,0 -18.014,7.437 -18.014,17.241 0,9.753 7.92,17.143 18.447,17.143 5.023,0 10.142,-1.932 13.569,-4.926 L 2.607,6.615 c -2.511,2.318 -5.987,3.767 -9.272,3.767 -5.987,0 -10.624,-4.587 -10.624,-10.526 0,-5.988 4.686,-10.577 10.674,-10.577 2.028,0 4.443,0.726 6.615,1.836 z" />
          </g>
          <g
             transform="translate(271.6123,346.9438)"
             id="g4637">
            <path
               inkscape:connector-curvature="0"
               id="path4639"
               style="fill:#414142;fill-opacity:1;fill-rule:nonzero;stroke:none"
               d="M 0,0 V -10.914 H -7.63 V -0.193 L -20.137,22.89 h 7.677 L -3.814,7.727 4.636,22.89 h 7.677 z" />
          </g>
          <g
             transform="translate(313.0205,369.833)"
             id="g4641">
            <path
               inkscape:connector-curvature="0"
               id="path4643"
               style="fill:#414142;fill-opacity:1;fill-rule:nonzero;stroke:none"
               d="m 0,0 v -6.325 h -18.107 v -7.341 h 16.32 v -6.327 h -16.32 v -7.484 H 0.53 v -6.325 H -25.737 V 0 Z" />
          </g>
          <g
             transform="translate(344.4541,369.833)"
             id="g4645">
            <path
               inkscape:connector-curvature="0"
               id="path4647"
               style="fill:#414142;fill-opacity:1;fill-rule:nonzero;stroke:none"
               d="m 0,0 v -6.471 h -10.335 v -27.331 h -7.63 V -6.471 H -28.25 V 0 Z" />
          </g>
          <g
             transform="translate(373.7861,369.833)"
             id="g4649">
            <path
               inkscape:connector-curvature="0"
               id="path4651"
               style="fill:#414142;fill-opacity:1;fill-rule:nonzero;stroke:none"
               d="m 0,0 v -6.325 h -18.108 v -7.341 h 16.32 v -6.327 h -16.32 v -7.484 H 0.53 v -6.325 H -25.738 V 0 Z" />
          </g>
          <g
             transform="translate(389.0176,369.833)"
             id="g4653">
            <path
               inkscape:connector-curvature="0"
               id="path4655"
               style="fill:#414142;fill-opacity:1;fill-rule:nonzero;stroke:none"
               d="M 0,0 9.852,-20.669 19.653,0 h 8.5 v -33.802 h -6.857 v 22.791 L 12.313,-30.375 H 7.341 l -8.983,19.364 V -33.802 H -8.547 V 0 Z" />
          </g>
          <path
             inkscape:connector-curvature="0"
             id="path4657"
             style="fill:#0083c9;fill-opacity:1;fill-rule:nonzero;stroke:none"
             d="m 462,308.256 h -30.499 v 6.246 H 462 Z" />
        </g>
      </g>
    </g>
  </g>
</svg>
