<?xml version="1.0" encoding="UTF-8"?>
<!DOCTYPE svg PUBLIC "-//W3C//DTD SVG 1.1//EN" "http://www.w3.org/Graphics/SVG/1.1/DTD/svg11.dtd">
<svg version="1.2" width="269.89mm" height="241.98mm" viewBox="2095 1936 26989 24198" preserveAspectRatio="xMidYMid" fill-rule="evenodd" stroke-width="28.222" stroke-linejoin="round" xmlns="http://www.w3.org/2000/svg" xmlns:ooo="http://xml.openoffice.org/svg/export" xmlns:xlink="http://www.w3.org/1999/xlink" xmlns:presentation="http://sun.com/xmlns/staroffice/presentation" xmlns:smil="http://www.w3.org/2001/SMIL20/" xmlns:anim="urn:oasis:names:tc:opendocument:xmlns:animation:1.0" xml:space="preserve">
 <defs class="ClipPathGroup">
  <clipPath id="presentation_clip_path" clipPathUnits="userSpaceOnUse">
   <rect x="2095" y="1936" width="26989" height="24198"/>
  </clipPath>
 </defs>
 <defs class="TextShapeIndex">
  <g ooo:slide="id1" ooo:id-list="id3 id4 id5 id6 id7 id8 id9 id10 id11 id12 id13 id14 id15 id16 id17 id18 id19 id20 id21 id22 id23 id24 id25 id26 id27 id28 id29 id30 id31 id32 id33 id34 id35 id36 id37 id38 id39 id40 id41 id42 id43 id44 id45 id46 id47 id48 id49 id50 id51 id52 id53 id54 id55 id56 id57 id58 id59 id60 id61 id62 id63 id64 id65 id66 id67 id68 id69 id70 id71 id72 id73 id74 id75 id76 id77 id78 id79 id80 id81 id82 id83 id84 id85 id86 id87 id88 id89 id90 id91 id92 id93 id94 id95 id96 id97 id98 id99 id100 id101 id102 id103 id104 id105 id106 id107 id108 id109 id110 id111 id112 id113 id114 id115 id116 id117 id118 id119 id120 id121 id122 id123 id124 id125 id126 id127 id128 id129 id130 id131 id132 id133 id134"/>
 </defs>
 <defs class="EmbeddedBulletChars">
  <g id="bullet-char-template(57356)" transform="scale(0.00048828125,-0.00048828125)">
   <path d="M 580,1141 L 1163,571 580,0 -4,571 580,1141 Z"/>
  </g>
  <g id="bullet-char-template(57354)" transform="scale(0.00048828125,-0.00048828125)">
   <path d="M 8,1128 L 1137,1128 1137,0 8,0 8,1128 Z"/>
  </g>
  <g id="bullet-char-template(10146)" transform="scale(0.00048828125,-0.00048828125)">
   <path d="M 174,0 L 602,739 174,1481 1456,739 174,0 Z M 1358,739 L 309,1346 659,739 1358,739 Z"/>
  </g>
  <g id="bullet-char-template(10132)" transform="scale(0.00048828125,-0.00048828125)">
   <path d="M 2015,739 L 1276,0 717,0 1260,543 174,543 174,936 1260,936 717,1481 1274,1481 2015,739 Z"/>
  </g>
  <g id="bullet-char-template(10007)" transform="scale(0.00048828125,-0.00048828125)">
   <path d="M 0,-2 C -7,14 -16,27 -25,37 L 356,567 C 262,823 215,952 215,954 215,979 228,992 255,992 264,992 276,990 289,987 310,991 331,999 354,1012 L 381,999 492,748 772,1049 836,1024 860,1049 C 881,1039 901,1025 922,1006 886,937 835,863 770,784 769,783 710,716 594,584 L 774,223 C 774,196 753,168 711,139 L 727,119 C 717,90 699,76 672,76 641,76 570,178 457,381 L 164,-76 C 142,-110 111,-127 72,-127 30,-127 9,-110 8,-76 1,-67 -2,-52 -2,-32 -2,-23 -1,-13 0,-2 Z"/>
  </g>
  <g id="bullet-char-template(10004)" transform="scale(0.00048828125,-0.00048828125)">
   <path d="M 285,-33 C 182,-33 111,30 74,156 52,228 41,333 41,471 41,549 55,616 82,672 116,743 169,778 240,778 293,778 328,747 346,684 L 369,508 C 377,444 397,411 428,410 L 1163,1116 C 1174,1127 1196,1133 1229,1133 1271,1133 1292,1118 1292,1087 L 1292,965 C 1292,929 1282,901 1262,881 L 442,47 C 390,-6 338,-33 285,-33 Z"/>
  </g>
  <g id="bullet-char-template(9679)" transform="scale(0.00048828125,-0.00048828125)">
   <path d="M 813,0 C 632,0 489,54 383,161 276,268 223,411 223,592 223,773 276,916 383,1023 489,1130 632,1184 813,1184 992,1184 1136,1130 1245,1023 1353,916 1407,772 1407,592 1407,412 1353,268 1245,161 1136,54 992,0 813,0 Z"/>
  </g>
  <g id="bullet-char-template(8226)" transform="scale(0.00048828125,-0.00048828125)">
   <path d="M 346,457 C 273,457 209,483 155,535 101,586 74,649 74,723 74,796 101,859 155,911 209,963 273,989 346,989 419,989 480,963 531,910 582,859 608,796 608,723 608,648 583,586 532,535 482,483 420,457 346,457 Z"/>
  </g>
  <g id="bullet-char-template(8211)" transform="scale(0.00048828125,-0.00048828125)">
   <path d="M -4,459 L 1135,459 1135,606 -4,606 -4,459 Z"/>
  </g>
 </defs>
 <defs class="TextEmbeddedBitmaps"/>
 <g class="SlideGroup">
  <g>
   <g id="id1" class="Slide" clip-path="url(#presentation_clip_path)">
    <g class="Page">
     <g class="com.sun.star.drawing.ClosedBezierShape">
      <g id="id3">
       <rect class="BoundingBox" stroke="none" fill="none" x="6935" y="19914" width="17265" height="4707"/>
       <path fill="rgb(60,31,78)" stroke="none" d="M 7222,20052 C 7171,19981 7071,19965 7000,20016 6929,20068 6914,20167 6965,20238 7927,21566 9202,22667 10652,23424 12150,24205 13840,24619 15541,24619 17258,24619 18962,24198 20471,23403 21931,22633 23209,21514 24169,20165 24219,20094 24203,19995 24131,19944 24060,19893 23961,19910 23910,19981 21985,22687 18856,24301 15541,24301 12260,24301 9151,22713 7222,20052 Z"/>
      </g>
     </g>
     <g class="com.sun.star.drawing.ClosedBezierShape">
      <g id="id4">
       <rect class="BoundingBox" stroke="none" fill="none" x="7397" y="3451" width="16348" height="4113"/>
       <path fill="rgb(60,31,78)" stroke="none" d="M 7679,7434 C 9637,5104 12502,3769 15541,3769 18616,3769 21503,5131 23463,7506 23494,7544 23540,7563 23585,7563 23621,7563 23657,7552 23686,7527 23754,7471 23763,7371 23708,7304 21688,4855 18711,3451 15541,3451 12409,3451 9454,4828 7436,7230 7379,7297 7388,7397 7455,7453 7522,7510 7622,7501 7679,7434 Z"/>
      </g>
     </g>
     <g class="com.sun.star.drawing.ClosedBezierShape">
      <g id="id5">
       <rect class="BoundingBox" stroke="none" fill="none" x="4278" y="1935" width="20476" height="7861"/>
       <path fill="rgb(60,31,78)" stroke="none" d="M 4379,9784 C 4398,9792 4417,9795 4437,9795 4500,9795 4560,9757 4585,9695 6377,5175 10678,2254 15541,2254 18975,2254 22231,3747 24473,6353 24530,6420 24631,6427 24697,6370 24763,6313 24771,6212 24714,6146 22411,3470 19068,1936 15541,1936 13069,1936 10692,2677 8665,4079 6686,5448 5173,7350 4289,9578 4257,9659 4297,9752 4379,9784 Z"/>
      </g>
     </g>
     <g class="com.sun.star.drawing.ClosedBezierShape">
      <g id="id6">
       <rect class="BoundingBox" stroke="none" fill="none" x="24513" y="20543" width="331" height="326"/>
       <path fill="rgb(60,31,78)" stroke="none" d="M 24585,20830 C 24662,20888 24755,20878 24810,20804 24864,20730 24848,20637 24771,20580 24695,20524 24600,20532 24546,20606 24488,20684 24509,20774 24585,20830 Z"/>
      </g>
     </g>
     <g class="com.sun.star.drawing.ClosedBezierShape">
      <g id="id7">
       <rect class="BoundingBox" stroke="none" fill="none" x="24188" y="20958" width="331" height="327"/>
       <path fill="rgb(60,31,78)" stroke="none" d="M 24452,21000 C 24380,20940 24284,20945 24227,21015 24166,21090 24182,21182 24255,21242 24330,21303 24423,21297 24481,21226 24539,21154 24527,21061 24452,21000 Z"/>
      </g>
     </g>
     <g class="com.sun.star.drawing.ClosedBezierShape">
      <g id="id8">
       <rect class="BoundingBox" stroke="none" fill="none" x="23847" y="21356" width="329" height="329"/>
       <path fill="rgb(60,31,78)" stroke="none" d="M 23888,21409 C 23824,21481 23837,21572 23907,21636 23980,21700 24072,21699 24133,21631 24194,21561 24187,21468 24115,21403 24045,21341 23949,21340 23888,21409 Z"/>
      </g>
     </g>
     <g class="com.sun.star.drawing.ClosedBezierShape">
      <g id="id9">
       <rect class="BoundingBox" stroke="none" fill="none" x="23487" y="21741" width="329" height="329"/>
       <path fill="rgb(60,31,78)" stroke="none" d="M 23534,21787 C 23466,21856 23474,21950 23541,22015 23611,22083 23704,22086 23768,22021 23832,21955 23829,21860 23760,21793 23693,21727 23599,21722 23534,21787 Z"/>
      </g>
     </g>
     <g class="com.sun.star.drawing.ClosedBezierShape">
      <g id="id10">
       <rect class="BoundingBox" stroke="none" fill="none" x="23110" y="22107" width="328" height="329"/>
       <path fill="rgb(60,31,78)" stroke="none" d="M 23162,22149 C 23091,22214 23095,22307 23159,22377 23225,22447 23318,22454 23385,22392 23452,22329 23453,22235 23387,22164 23323,22095 23229,22086 23162,22149 Z"/>
      </g>
     </g>
     <g class="com.sun.star.drawing.ClosedBezierShape">
      <g id="id11">
       <rect class="BoundingBox" stroke="none" fill="none" x="22717" y="22455" width="326" height="330"/>
       <path fill="rgb(60,31,78)" stroke="none" d="M 22775,22492 C 22700,22555 22700,22648 22760,22719 22824,22794 22916,22805 22985,22746 23055,22686 23061,22592 22998,22518 22938,22447 22844,22433 22775,22492 Z"/>
      </g>
     </g>
     <g class="com.sun.star.drawing.ClosedBezierShape">
      <g id="id12">
       <rect class="BoundingBox" stroke="none" fill="none" x="22307" y="22786" width="326" height="331"/>
       <path fill="rgb(60,31,78)" stroke="none" d="M 22370,22820 C 22293,22879 22289,22972 22346,23046 22405,23123 22497,23139 22570,23082 22642,23026 22652,22933 22593,22856 22536,22781 22442,22763 22370,22820 Z"/>
      </g>
     </g>
     <g class="com.sun.star.drawing.ClosedBezierShape">
      <g id="id13">
       <rect class="BoundingBox" stroke="none" fill="none" x="21883" y="23097" width="325" height="331"/>
       <path fill="rgb(60,31,78)" stroke="none" d="M 21951,23127 C 21872,23182 21863,23274 21917,23351 21972,23430 22064,23450 22138,23397 22213,23345 22228,23252 22172,23173 22118,23095 22027,23073 21951,23127 Z"/>
      </g>
     </g>
     <g class="com.sun.star.drawing.ClosedBezierShape">
      <g id="id14">
       <rect class="BoundingBox" stroke="none" fill="none" x="21446" y="23387" width="324" height="332"/>
       <path fill="rgb(60,31,78)" stroke="none" d="M 21520,23412 C 21438,23465 21425,23556 21475,23636 21527,23717 21616,23741 21695,23692 21772,23643 21790,23551 21739,23469 21688,23389 21597,23363 21520,23412 Z"/>
      </g>
     </g>
     <g class="com.sun.star.drawing.ClosedBezierShape">
      <g id="id15">
       <rect class="BoundingBox" stroke="none" fill="none" x="20995" y="23657" width="322" height="333"/>
       <path fill="rgb(60,31,78)" stroke="none" d="M 21075,23679 C 20991,23727 20974,23818 21020,23900 21068,23984 21156,24012 21237,23967 21316,23921 21339,23829 21291,23745 21244,23664 21154,23634 21075,23679 Z"/>
      </g>
     </g>
     <g class="com.sun.star.drawing.ClosedBezierShape">
      <g id="id16">
       <rect class="BoundingBox" stroke="none" fill="none" x="20532" y="23907" width="321" height="332"/>
       <path fill="rgb(60,31,78)" stroke="none" d="M 20618,23925 C 20532,23969 20511,24059 20554,24142 20597,24229 20684,24261 20766,24220 20848,24177 20875,24087 20831,24001 20787,23917 20700,23883 20618,23925 Z"/>
      </g>
     </g>
     <g class="com.sun.star.drawing.ClosedBezierShape">
      <g id="id17">
       <rect class="BoundingBox" stroke="none" fill="none" x="20058" y="24135" width="320" height="333"/>
       <path fill="rgb(60,31,78)" stroke="none" d="M 20151,24149 C 20062,24190 20037,24279 20076,24365 20116,24453 20202,24489 20285,24451 20368,24413 20399,24324 20360,24236 20321,24150 20235,24112 20151,24149 Z"/>
      </g>
     </g>
     <g class="com.sun.star.drawing.ClosedBezierShape">
      <g id="id18">
       <rect class="BoundingBox" stroke="none" fill="none" x="19573" y="24339" width="319" height="334"/>
       <path fill="rgb(60,31,78)" stroke="none" d="M 19671,24352 C 19581,24388 19552,24476 19587,24563 19622,24654 19706,24693 19792,24660 19876,24626 19912,24538 19876,24448 19841,24360 19757,24318 19671,24352 Z"/>
      </g>
     </g>
     <g class="com.sun.star.drawing.ClosedBezierShape">
      <g id="id19">
       <rect class="BoundingBox" stroke="none" fill="none" x="19081" y="24523" width="318" height="332"/>
       <path fill="rgb(60,31,78)" stroke="none" d="M 19187,24533 C 19095,24564 19062,24651 19092,24739 19124,24831 19205,24875 19292,24845 19379,24815 19419,24729 19387,24638 19355,24549 19273,24502 19187,24533 Z"/>
      </g>
     </g>
     <g class="com.sun.star.drawing.ClosedBezierShape">
      <g id="id20">
       <rect class="BoundingBox" stroke="none" fill="none" x="18580" y="24682" width="317" height="332"/>
       <path fill="rgb(60,31,78)" stroke="none" d="M 18693,24689 C 18600,24716 18562,24801 18589,24892 18616,24985 18696,25032 18784,25006 18871,24980 18915,24897 18888,24803 18861,24713 18781,24663 18693,24689 Z"/>
      </g>
     </g>
     <g class="com.sun.star.drawing.ClosedBezierShape">
      <g id="id21">
       <rect class="BoundingBox" stroke="none" fill="none" x="18071" y="24818" width="317" height="332"/>
       <path fill="rgb(60,31,78)" stroke="none" d="M 18191,24823 C 18097,24847 18056,24930 18078,25021 18101,25115 18178,25166 18267,25144 18356,25122 18404,25041 18381,24947 18358,24856 18280,24801 18191,24823 Z"/>
      </g>
     </g>
     <g class="com.sun.star.drawing.ClosedBezierShape">
      <g id="id22">
       <rect class="BoundingBox" stroke="none" fill="none" x="17559" y="24930" width="315" height="333"/>
       <path fill="rgb(60,31,78)" stroke="none" d="M 17687,24933 C 17591,24952 17545,25033 17563,25125 17582,25221 17658,25275 17747,25258 17837,25240 17888,25160 17869,25065 17851,24973 17776,24916 17687,24933 Z"/>
      </g>
     </g>
     <g class="com.sun.star.drawing.ClosedBezierShape">
      <g id="id23">
       <rect class="BoundingBox" stroke="none" fill="none" x="17039" y="25019" width="315" height="332"/>
       <path fill="rgb(60,31,78)" stroke="none" d="M 17173,25021 C 17077,25035 17028,25114 17042,25208 17056,25303 17128,25361 17218,25348 17310,25335 17364,25258 17350,25161 17337,25068 17264,25008 17173,25021 Z"/>
      </g>
     </g>
     <g class="com.sun.star.drawing.ClosedBezierShape">
      <g id="id24">
       <rect class="BoundingBox" stroke="none" fill="none" x="16517" y="25081" width="314" height="333"/>
       <path fill="rgb(60,31,78)" stroke="none" d="M 16659,25083 C 16562,25093 16509,25170 16518,25264 16528,25360 16597,25421 16689,25412 16780,25403 16838,25328 16829,25232 16819,25138 16750,25074 16659,25083 Z"/>
      </g>
     </g>
     <g class="com.sun.star.drawing.ClosedBezierShape">
      <g id="id25">
       <rect class="BoundingBox" stroke="none" fill="none" x="15994" y="25122" width="313" height="332"/>
       <path fill="rgb(60,31,78)" stroke="none" d="M 15994,25295 C 15999,25391 16065,25457 16157,25452 16248,25447 16310,25375 16305,25278 16300,25184 16233,25117 16141,25122 16045,25128 15989,25201 15994,25295 Z"/>
      </g>
     </g>
     <g class="com.sun.star.drawing.ClosedBezierShape">
      <g id="id26">
       <rect class="BoundingBox" stroke="none" fill="none" x="15465" y="25137" width="314" height="333"/>
       <path fill="rgb(60,31,78)" stroke="none" d="M 15465,25304 C 15466,25401 15529,25469 15621,25468 15713,25467 15778,25397 15777,25301 15776,25207 15712,25137 15620,25138 15523,25139 15464,25210 15465,25304 Z"/>
      </g>
     </g>
     <g class="com.sun.star.drawing.ClosedBezierShape">
      <g id="id27">
       <rect class="BoundingBox" stroke="none" fill="none" x="14941" y="25130" width="313" height="331"/>
       <path fill="rgb(60,31,78)" stroke="none" d="M 14941,25288 C 14937,25385 14997,25456 15090,25459 15181,25463 15249,25396 15252,25300 15255,25206 15195,25133 15104,25130 15007,25126 14944,25195 14941,25288 Z"/>
      </g>
     </g>
     <g class="com.sun.star.drawing.ClosedBezierShape">
      <g id="id28">
       <rect class="BoundingBox" stroke="none" fill="none" x="14413" y="25097" width="315" height="332"/>
       <path fill="rgb(60,31,78)" stroke="none" d="M 14415,25249 C 14407,25345 14465,25418 14556,25427 14647,25434 14718,25371 14726,25275 14733,25181 14677,25106 14586,25098 14489,25089 14423,25155 14415,25249 Z"/>
      </g>
     </g>
     <g class="com.sun.star.drawing.ClosedBezierShape">
      <g id="id29">
       <rect class="BoundingBox" stroke="none" fill="none" x="13891" y="25041" width="314" height="332"/>
       <path fill="rgb(60,31,78)" stroke="none" d="M 13893,25186 C 13881,25282 13934,25358 14025,25369 14116,25381 14190,25322 14202,25226 14214,25133 14161,25054 14070,25042 13974,25030 13905,25093 13893,25186 Z"/>
      </g>
     </g>
     <g class="com.sun.star.drawing.ClosedBezierShape">
      <g id="id30">
       <rect class="BoundingBox" stroke="none" fill="none" x="13370" y="24960" width="315" height="332"/>
       <path fill="rgb(60,31,78)" stroke="none" d="M 13373,25098 C 13356,25194 13406,25272 13496,25288 13587,25304 13663,25248 13680,25152 13697,25059 13647,24979 13556,24963 13461,24946 13390,25005 13373,25098 Z"/>
      </g>
     </g>
     <g class="com.sun.star.drawing.ClosedBezierShape">
      <g id="id31">
       <rect class="BoundingBox" stroke="none" fill="none" x="12854" y="24855" width="317" height="333"/>
       <path fill="rgb(60,31,78)" stroke="none" d="M 12860,24986 C 12839,25081 12885,25162 12975,25182 13064,25202 13143,25150 13164,25055 13185,24963 13139,24880 13050,24860 12956,24839 12881,24895 12860,24986 Z"/>
      </g>
     </g>
     <g class="com.sun.star.drawing.ClosedBezierShape">
      <g id="id32">
       <rect class="BoundingBox" stroke="none" fill="none" x="12343" y="24727" width="317" height="331"/>
       <path fill="rgb(60,31,78)" stroke="none" d="M 12350,24852 C 12325,24945 12367,25027 12456,25051 12544,25075 12625,25027 12651,24934 12676,24843 12634,24758 12546,24734 12453,24708 12375,24760 12350,24852 Z"/>
      </g>
     </g>
     <g class="com.sun.star.drawing.ClosedBezierShape">
      <g id="id33">
       <rect class="BoundingBox" stroke="none" fill="none" x="11838" y="24575" width="319" height="332"/>
       <path fill="rgb(60,31,78)" stroke="none" d="M 11849,24692 C 11819,24784 11858,24869 11945,24897 12032,24925 12116,24881 12146,24788 12175,24699 12137,24612 12049,24584 11957,24554 11878,24602 11849,24692 Z"/>
      </g>
     </g>
     <g class="com.sun.star.drawing.ClosedBezierShape">
      <g id="id34">
       <rect class="BoundingBox" stroke="none" fill="none" x="11342" y="24400" width="320" height="332"/>
       <path fill="rgb(60,31,78)" stroke="none" d="M 11356,24510 C 11322,24601 11356,24687 11442,24719 11527,24751 11613,24711 11648,24621 11681,24533 11647,24444 11562,24411 11470,24377 11389,24422 11356,24510 Z"/>
      </g>
     </g>
     <g class="com.sun.star.drawing.ClosedBezierShape">
      <g id="id35">
       <rect class="BoundingBox" stroke="none" fill="none" x="10854" y="24201" width="320" height="332"/>
       <path fill="rgb(60,31,78)" stroke="none" d="M 10870,24305 C 10832,24394 10863,24481 10947,24518 11031,24555 11118,24518 11156,24429 11194,24342 11164,24253 11080,24216 10992,24177 10908,24219 10870,24305 Z"/>
      </g>
     </g>
     <g class="com.sun.star.drawing.ClosedBezierShape">
      <g id="id36">
       <rect class="BoundingBox" stroke="none" fill="none" x="10377" y="23981" width="321" height="332"/>
       <path fill="rgb(60,31,78)" stroke="none" d="M 10397,24077 C 10355,24165 10382,24254 10464,24294 10546,24334 10634,24301 10678,24215 10719,24130 10694,24038 10610,23998 10524,23956 10439,23993 10397,24077 Z"/>
      </g>
     </g>
     <g class="com.sun.star.drawing.ClosedBezierShape">
      <g id="id37">
       <rect class="BoundingBox" stroke="none" fill="none" x="9909" y="23738" width="322" height="331"/>
       <path fill="rgb(60,31,78)" stroke="none" d="M 9933,23829 C 9887,23914 9909,24003 9989,24047 10070,24091 10160,24063 10206,23978 10252,23896 10230,23804 10150,23759 10066,23713 9978,23746 9933,23829 Z"/>
      </g>
     </g>
     <g class="com.sun.star.drawing.ClosedBezierShape">
      <g id="id38">
       <rect class="BoundingBox" stroke="none" fill="none" x="9453" y="23474" width="324" height="331"/>
       <path fill="rgb(60,31,78)" stroke="none" d="M 9481,23558 C 9430,23640 9449,23731 9527,23778 9605,23827 9696,23803 9747,23719 9797,23639 9780,23546 9701,23499 9618,23448 9530,23478 9481,23558 Z"/>
      </g>
     </g>
     <g class="com.sun.star.drawing.ClosedBezierShape">
      <g id="id39">
       <rect class="BoundingBox" stroke="none" fill="none" x="9009" y="23188" width="324" height="331"/>
       <path fill="rgb(60,31,78)" stroke="none" d="M 9042,23266 C 8988,23346 9002,23437 9077,23490 9154,23541 9246,23521 9300,23440 9353,23362 9340,23268 9264,23217 9184,23163 9094,23188 9042,23266 Z"/>
      </g>
     </g>
     <g class="com.sun.star.drawing.ClosedBezierShape">
      <g id="id40">
       <rect class="BoundingBox" stroke="none" fill="none" x="8580" y="22884" width="325" height="330"/>
       <path fill="rgb(60,31,78)" stroke="none" d="M 8618,22956 C 8560,23033 8570,23126 8643,23181 8716,23235 8809,23220 8867,23142 8924,23067 8916,22972 8842,22917 8764,22860 8674,22880 8618,22956 Z"/>
      </g>
     </g>
     <g class="com.sun.star.drawing.ClosedBezierShape">
      <g id="id41">
       <rect class="BoundingBox" stroke="none" fill="none" x="8165" y="22559" width="327" height="330"/>
       <path fill="rgb(60,31,78)" stroke="none" d="M 8207,22625 C 8146,22700 8151,22793 8222,22851 8294,22909 8387,22897 8448,22823 8508,22750 8504,22655 8433,22597 8358,22536 8267,22552 8207,22625 Z"/>
      </g>
     </g>
     <g class="com.sun.star.drawing.ClosedBezierShape">
      <g id="id42">
       <rect class="BoundingBox" stroke="none" fill="none" x="7766" y="22217" width="327" height="329"/>
       <path fill="rgb(60,31,78)" stroke="none" d="M 7813,22277 C 7749,22350 7750,22442 7818,22503 7886,22564 7981,22557 8045,22485 8108,22415 8108,22320 8040,22259 7969,22194 7876,22207 7813,22277 Z"/>
      </g>
     </g>
     <g class="com.sun.star.drawing.ClosedBezierShape">
      <g id="id43">
       <rect class="BoundingBox" stroke="none" fill="none" x="7381" y="21855" width="330" height="329"/>
       <path fill="rgb(60,31,78)" stroke="none" d="M 7435,21910 C 7367,21980 7364,22072 7429,22136 7494,22200 7589,22198 7656,22129 7723,22062 7728,21968 7663,21903 7593,21835 7501,21843 7435,21910 Z"/>
      </g>
     </g>
     <g class="com.sun.star.drawing.ClosedBezierShape">
      <g id="id44">
       <rect class="BoundingBox" stroke="none" fill="none" x="7016" y="21476" width="330" height="329"/>
       <path fill="rgb(60,31,78)" stroke="none" d="M 7075,21526 C 7003,21592 6996,21685 7059,21752 7121,21819 7215,21821 7286,21755 7356,21691 7365,21597 7302,21530 7237,21459 7144,21462 7075,21526 Z"/>
      </g>
     </g>
     <g class="com.sun.star.drawing.ClosedBezierShape">
      <g id="id45">
       <rect class="BoundingBox" stroke="none" fill="none" x="6666" y="21083" width="331" height="327"/>
       <path fill="rgb(60,31,78)" stroke="none" d="M 6732,21126 C 6657,21190 6646,21281 6706,21351 6765,21421 6859,21427 6933,21365 7004,21304 7018,21211 6959,21140 6897,21066 6804,21066 6732,21126 Z"/>
      </g>
     </g>
     <g class="com.sun.star.drawing.ClosedBezierShape">
      <g id="id46">
       <rect class="BoundingBox" stroke="none" fill="none" x="6338" y="20673" width="331" height="326"/>
       <path fill="rgb(60,31,78)" stroke="none" d="M 6598,20959 C 6672,20902 6690,20808 6635,20736 6576,20659 6483,20654 6409,20712 6331,20771 6315,20863 6371,20935 6428,21007 6521,21018 6598,20959 Z"/>
      </g>
     </g>
     <g class="com.sun.star.drawing.ClosedBezierShape">
      <g id="id47">
       <rect class="BoundingBox" stroke="none" fill="none" x="5168" y="9030" width="332" height="321"/>
       <path fill="rgb(60,31,78)" stroke="none" d="M 5185,9117 C 5145,9199 5177,9288 5263,9330 5348,9372 5440,9347 5480,9265 5523,9178 5486,9093 5400,9050 5314,9008 5225,9034 5185,9117 Z"/>
      </g>
     </g>
     <g class="com.sun.star.drawing.ClosedBezierShape">
      <g id="id48">
       <rect class="BoundingBox" stroke="none" fill="none" x="5411" y="8563" width="331" height="322"/>
       <path fill="rgb(60,31,78)" stroke="none" d="M 5719,8805 C 5766,8719 5732,8632 5650,8587 5565,8541 5476,8563 5432,8643 5387,8723 5416,8814 5501,8860 5583,8906 5675,8885 5719,8805 Z"/>
      </g>
     </g>
     <g class="com.sun.star.drawing.ClosedBezierShape">
      <g id="id49">
       <rect class="BoundingBox" stroke="none" fill="none" x="5676" y="8108" width="331" height="324"/>
       <path fill="rgb(60,31,78)" stroke="none" d="M 5981,8357 C 6031,8274 6002,8186 5922,8136 5840,8086 5749,8104 5700,8183 5653,8261 5677,8352 5760,8402 5840,8452 5933,8435 5981,8357 Z"/>
      </g>
     </g>
     <g class="com.sun.star.drawing.ClosedBezierShape">
      <g id="id50">
       <rect class="BoundingBox" stroke="none" fill="none" x="5962" y="7666" width="331" height="325"/>
       <path fill="rgb(60,31,78)" stroke="none" d="M 6038,7958 C 6117,8010 6211,7998 6262,7922 6316,7841 6291,7752 6214,7699 6134,7645 6041,7659 5990,7735 5939,7810 5958,7903 6038,7958 Z"/>
      </g>
     </g>
     <g class="com.sun.star.drawing.ClosedBezierShape">
      <g id="id51">
       <rect class="BoundingBox" stroke="none" fill="none" x="6268" y="7237" width="330" height="325"/>
       <path fill="rgb(60,31,78)" stroke="none" d="M 6339,7524 C 6416,7581 6510,7572 6564,7499 6622,7422 6601,7331 6526,7275 6449,7217 6356,7226 6301,7300 6246,7374 6262,7467 6339,7524 Z"/>
      </g>
     </g>
     <g class="com.sun.star.drawing.ClosedBezierShape">
      <g id="id52">
       <rect class="BoundingBox" stroke="none" fill="none" x="6593" y="6822" width="330" height="327"/>
       <path fill="rgb(60,31,78)" stroke="none" d="M 6658,7106 C 6732,7165 6826,7161 6884,7091 6945,7016 6929,6924 6856,6864 6781,6803 6688,6808 6630,6879 6572,6951 6583,7044 6658,7106 Z"/>
      </g>
     </g>
     <g class="com.sun.star.drawing.ClosedBezierShape">
      <g id="id53">
       <rect class="BoundingBox" stroke="none" fill="none" x="6938" y="6423" width="329" height="328"/>
       <path fill="rgb(60,31,78)" stroke="none" d="M 6979,6475 C 6918,6543 6925,6637 6997,6702 7068,6765 7162,6766 7223,6698 7288,6625 7275,6533 7206,6471 7134,6406 7042,6407 6979,6475 Z"/>
      </g>
     </g>
     <g class="com.sun.star.drawing.ClosedBezierShape">
      <g id="id54">
       <rect class="BoundingBox" stroke="none" fill="none" x="7300" y="6040" width="329" height="328"/>
       <path fill="rgb(60,31,78)" stroke="none" d="M 7580,6320 C 7648,6252 7640,6159 7573,6093 7504,6025 7412,6022 7347,6087 7282,6152 7285,6246 7354,6314 7421,6381 7515,6386 7580,6320 Z"/>
      </g>
     </g>
     <g class="com.sun.star.drawing.ClosedBezierShape">
      <g id="id55">
       <rect class="BoundingBox" stroke="none" fill="none" x="7679" y="5675" width="327" height="329"/>
       <path fill="rgb(60,31,78)" stroke="none" d="M 7952,5961 C 8024,5896 8020,5803 7956,5734 7890,5662 7798,5655 7731,5718 7664,5780 7662,5874 7727,5945 7791,6014 7885,6023 7952,5961 Z"/>
      </g>
     </g>
     <g class="com.sun.star.drawing.ClosedBezierShape">
      <g id="id56">
       <rect class="BoundingBox" stroke="none" fill="none" x="8075" y="5326" width="327" height="331"/>
       <path fill="rgb(60,31,78)" stroke="none" d="M 8343,5619 C 8417,5557 8417,5464 8357,5391 8295,5317 8202,5306 8132,5364 8062,5424 8056,5518 8118,5592 8179,5664 8273,5678 8343,5619 Z"/>
      </g>
     </g>
     <g class="com.sun.star.drawing.ClosedBezierShape">
      <g id="id57">
       <rect class="BoundingBox" stroke="none" fill="none" x="8487" y="4998" width="326" height="331"/>
       <path fill="rgb(60,31,78)" stroke="none" d="M 8748,5295 C 8825,5236 8830,5143 8773,5068 8714,4991 8623,4975 8549,5031 8477,5087 8466,5181 8525,5258 8583,5332 8676,5350 8748,5295 Z"/>
      </g>
     </g>
     <g class="com.sun.star.drawing.ClosedBezierShape">
      <g id="id58">
       <rect class="BoundingBox" stroke="none" fill="none" x="8912" y="4688" width="326" height="332"/>
       <path fill="rgb(60,31,78)" stroke="none" d="M 9167,4990 C 9247,4935 9256,4842 9202,4765 9146,4685 9056,4665 8981,4717 8906,4770 8891,4863 8946,4943 9000,5020 9091,5042 9167,4990 Z"/>
      </g>
     </g>
     <g class="com.sun.star.drawing.ClosedBezierShape">
      <g id="id59">
       <rect class="BoundingBox" stroke="none" fill="none" x="9352" y="4398" width="325" height="332"/>
       <path fill="rgb(60,31,78)" stroke="none" d="M 9601,4704 C 9683,4653 9696,4561 9646,4482 9594,4399 9505,4375 9427,4423 9350,4473 9330,4565 9382,4647 9432,4726 9523,4753 9601,4704 Z"/>
      </g>
     </g>
     <g class="com.sun.star.drawing.ClosedBezierShape">
      <g id="id60">
       <rect class="BoundingBox" stroke="none" fill="none" x="9806" y="4128" width="322" height="333"/>
       <path fill="rgb(60,31,78)" stroke="none" d="M 10046,4438 C 10131,4391 10148,4300 10102,4218 10054,4134 9965,4105 9886,4151 9806,4196 9783,4287 9831,4371 9877,4454 9966,4484 10046,4438 Z"/>
      </g>
     </g>
     <g class="com.sun.star.drawing.ClosedBezierShape">
      <g id="id61">
       <rect class="BoundingBox" stroke="none" fill="none" x="10270" y="3882" width="322" height="332"/>
       <path fill="rgb(60,31,78)" stroke="none" d="M 10504,4195 C 10590,4152 10612,4061 10569,3977 10526,3891 10439,3858 10358,3900 10275,3941 10248,4031 10291,4118 10334,4202 10422,4237 10504,4195 Z"/>
      </g>
     </g>
     <g class="com.sun.star.drawing.ClosedBezierShape">
      <g id="id62">
       <rect class="BoundingBox" stroke="none" fill="none" x="10748" y="3656" width="320" height="332"/>
       <path fill="rgb(60,31,78)" stroke="none" d="M 10974,3972 C 11062,3933 11088,3844 11049,3757 11010,3669 10924,3633 10840,3670 10757,3707 10725,3797 10765,3885 10803,3971 10889,4010 10974,3972 Z"/>
      </g>
     </g>
     <g class="com.sun.star.drawing.ClosedBezierShape">
      <g id="id63">
       <rect class="BoundingBox" stroke="none" fill="none" x="11232" y="3452" width="320" height="332"/>
       <path fill="rgb(60,31,78)" stroke="none" d="M 11450,3771 C 11541,3736 11571,3648 11537,3561 11500,3471 11417,3430 11332,3464 11247,3498 11210,3585 11247,3675 11281,3762 11365,3806 11450,3771 Z"/>
      </g>
     </g>
     <g class="com.sun.star.drawing.ClosedBezierShape">
      <g id="id64">
       <rect class="BoundingBox" stroke="none" fill="none" x="11728" y="3272" width="318" height="333"/>
       <path fill="rgb(60,31,78)" stroke="none" d="M 11938,3594 C 12030,3563 12064,3477 12033,3387 12002,3295 11921,3251 11835,3281 11747,3310 11707,3396 11738,3488 11769,3577 11852,3624 11938,3594 Z"/>
      </g>
     </g>
     <g class="com.sun.star.drawing.ClosedBezierShape">
      <g id="id65">
       <rect class="BoundingBox" stroke="none" fill="none" x="12231" y="3115" width="317" height="333"/>
       <path fill="rgb(60,31,78)" stroke="none" d="M 12434,3439 C 12527,3412 12565,3328 12539,3237 12512,3145 12433,3096 12344,3121 12256,3148 12213,3231 12239,3324 12266,3414 12345,3465 12434,3439 Z"/>
      </g>
     </g>
     <g class="com.sun.star.drawing.ClosedBezierShape">
      <g id="id66">
       <rect class="BoundingBox" stroke="none" fill="none" x="12739" y="2980" width="317" height="333"/>
       <path fill="rgb(60,31,78)" stroke="none" d="M 12934,3307 C 13028,3285 13070,3202 13048,3110 13026,3016 12948,2964 12859,2986 12770,3007 12723,3088 12745,3183 12767,3274 12845,3328 12934,3307 Z"/>
      </g>
     </g>
     <g class="com.sun.star.drawing.ClosedBezierShape">
      <g id="id67">
       <rect class="BoundingBox" stroke="none" fill="none" x="13255" y="2870" width="316" height="334"/>
       <path fill="rgb(60,31,78)" stroke="none" d="M 13442,3199 C 13536,3181 13583,3099 13565,3007 13546,2912 13472,2857 13382,2874 13293,2891 13240,2970 13258,3065 13277,3158 13352,3216 13442,3199 Z"/>
      </g>
     </g>
     <g class="com.sun.star.drawing.ClosedBezierShape">
      <g id="id68">
       <rect class="BoundingBox" stroke="none" fill="none" x="13774" y="2785" width="315" height="333"/>
       <path fill="rgb(60,31,78)" stroke="none" d="M 13954,3115 C 14049,3101 14099,3023 14085,2930 14071,2834 14000,2775 13909,2788 13818,2802 13763,2879 13777,2974 13790,3067 13863,3129 13954,3115 Z"/>
      </g>
     </g>
     <g class="com.sun.star.drawing.ClosedBezierShape">
      <g id="id69">
       <rect class="BoundingBox" stroke="none" fill="none" x="14297" y="2724" width="313" height="332"/>
       <path fill="rgb(60,31,78)" stroke="none" d="M 14468,3054 C 14564,3045 14617,2969 14608,2875 14599,2778 14530,2717 14438,2725 14347,2734 14289,2809 14298,2905 14307,2999 14376,3063 14468,3054 Z"/>
      </g>
     </g>
     <g class="com.sun.star.drawing.ClosedBezierShape">
      <g id="id70">
       <rect class="BoundingBox" stroke="none" fill="none" x="14823" y="2686" width="313" height="332"/>
       <path fill="rgb(60,31,78)" stroke="none" d="M 15134,2844 C 15129,2746 15063,2682 14971,2686 14880,2691 14818,2762 14823,2859 14828,2953 14894,3021 14985,3016 15083,3011 15139,2938 15134,2844 Z"/>
      </g>
     </g>
     <g class="com.sun.star.drawing.ClosedBezierShape">
      <g id="id71">
       <rect class="BoundingBox" stroke="none" fill="none" x="15351" y="2671" width="315" height="333"/>
       <path fill="rgb(60,31,78)" stroke="none" d="M 15664,2836 C 15663,2738 15598,2671 15507,2672 15416,2673 15351,2742 15352,2840 15353,2934 15417,3003 15508,3002 15605,3001 15665,2930 15664,2836 Z"/>
      </g>
     </g>
     <g class="com.sun.star.drawing.ClosedBezierShape">
      <g id="id72">
       <rect class="BoundingBox" stroke="none" fill="none" x="15876" y="2683" width="314" height="332"/>
       <path fill="rgb(60,31,78)" stroke="none" d="M 16188,2855 C 16192,2757 16132,2687 16040,2683 15948,2679 15880,2745 15876,2842 15873,2936 15932,3009 16025,3013 16121,3017 16184,2949 16188,2855 Z"/>
      </g>
     </g>
     <g class="com.sun.star.drawing.ClosedBezierShape">
      <g id="id73">
       <rect class="BoundingBox" stroke="none" fill="none" x="16400" y="2716" width="314" height="332"/>
       <path fill="rgb(60,31,78)" stroke="none" d="M 16712,2896 C 16720,2800 16664,2726 16572,2718 16480,2710 16410,2772 16401,2869 16393,2963 16449,3039 16540,3046 16637,3055 16704,2990 16712,2896 Z"/>
      </g>
     </g>
     <g class="com.sun.star.drawing.ClosedBezierShape">
      <g id="id74">
       <rect class="BoundingBox" stroke="none" fill="none" x="16924" y="2776" width="314" height="332"/>
       <path fill="rgb(60,31,78)" stroke="none" d="M 17235,2963 C 17248,2867 17195,2792 17104,2778 17013,2766 16939,2826 16926,2922 16914,3015 16967,3093 17058,3105 17154,3118 17222,3056 17235,2963 Z"/>
      </g>
     </g>
     <g class="com.sun.star.drawing.ClosedBezierShape">
      <g id="id75">
       <rect class="BoundingBox" stroke="none" fill="none" x="17443" y="2858" width="315" height="331"/>
       <path fill="rgb(60,31,78)" stroke="none" d="M 17753,3050 C 17770,2955 17720,2878 17630,2861 17540,2845 17463,2900 17446,2995 17429,3088 17478,3169 17568,3185 17664,3203 17736,3144 17753,3050 Z"/>
      </g>
     </g>
     <g class="com.sun.star.drawing.ClosedBezierShape">
      <g id="id76">
       <rect class="BoundingBox" stroke="none" fill="none" x="17958" y="2965" width="316" height="332"/>
       <path fill="rgb(60,31,78)" stroke="none" d="M 18267,3165 C 18289,3070 18242,2990 18153,2970 18064,2949 17985,3001 17963,3095 17942,3187 17988,3270 18077,3291 18171,3312 18245,3257 18267,3165 Z"/>
      </g>
     </g>
     <g class="com.sun.star.drawing.ClosedBezierShape">
      <g id="id77">
       <rect class="BoundingBox" stroke="none" fill="none" x="18468" y="3096" width="317" height="331"/>
       <path fill="rgb(60,31,78)" stroke="none" d="M 18776,3303 C 18802,3210 18760,3128 18671,3102 18583,3078 18501,3127 18476,3220 18450,3310 18492,3395 18580,3419 18673,3445 18750,3394 18776,3303 Z"/>
      </g>
     </g>
     <g class="com.sun.star.drawing.ClosedBezierShape">
      <g id="id78">
       <rect class="BoundingBox" stroke="none" fill="none" x="18969" y="3250" width="319" height="332"/>
       <path fill="rgb(60,31,78)" stroke="none" d="M 19276,3464 C 19306,3371 19268,3287 19181,3258 19094,3230 19011,3274 18980,3365 18950,3456 18988,3542 19075,3571 19167,3601 19246,3553 19276,3464 Z"/>
      </g>
     </g>
     <g class="com.sun.star.drawing.ClosedBezierShape">
      <g id="id79">
       <rect class="BoundingBox" stroke="none" fill="none" x="19466" y="3427" width="319" height="333"/>
       <path fill="rgb(60,31,78)" stroke="none" d="M 19770,3648 C 19804,3558 19770,3472 19684,3439 19598,3406 19513,3446 19479,3537 19445,3625 19478,3713 19564,3746 19654,3781 19735,3736 19770,3648 Z"/>
      </g>
     </g>
     <g class="com.sun.star.drawing.ClosedBezierShape">
      <g id="id80">
       <rect class="BoundingBox" stroke="none" fill="none" x="19951" y="3626" width="320" height="333"/>
       <path fill="rgb(60,31,78)" stroke="none" d="M 20252,3854 C 20291,3765 20261,3677 20177,3641 20092,3604 20005,3640 19967,3729 19929,3816 19958,3905 20042,3942 20131,3981 20215,3940 20252,3854 Z"/>
      </g>
     </g>
     <g class="com.sun.star.drawing.ClosedBezierShape">
      <g id="id81">
       <rect class="BoundingBox" stroke="none" fill="none" x="20427" y="3850" width="321" height="333"/>
       <path fill="rgb(60,31,78)" stroke="none" d="M 20726,4084 C 20769,3998 20743,3909 20661,3869 20579,3828 20490,3860 20447,3947 20405,4031 20430,4123 20513,4164 20600,4206 20685,4170 20726,4084 Z"/>
      </g>
     </g>
     <g class="com.sun.star.drawing.ClosedBezierShape">
      <g id="id82">
       <rect class="BoundingBox" stroke="none" fill="none" x="20893" y="4095" width="323" height="331"/>
       <path fill="rgb(60,31,78)" stroke="none" d="M 21189,4334 C 21237,4250 21214,4160 21134,4116 21054,4071 20964,4099 20917,4184 20871,4266 20891,4358 20972,4403 21057,4450 21144,4417 21189,4334 Z"/>
      </g>
     </g>
     <g class="com.sun.star.drawing.ClosedBezierShape">
      <g id="id83">
       <rect class="BoundingBox" stroke="none" fill="none" x="21347" y="4362" width="324" height="331"/>
       <path fill="rgb(60,31,78)" stroke="none" d="M 21640,4609 C 21692,4527 21674,4436 21595,4387 21517,4339 21426,4363 21376,4446 21325,4526 21342,4619 21421,4667 21503,4718 21591,4689 21640,4609 Z"/>
      </g>
     </g>
     <g class="com.sun.star.drawing.ClosedBezierShape">
      <g id="id84">
       <rect class="BoundingBox" stroke="none" fill="none" x="21787" y="4649" width="324" height="331"/>
       <path fill="rgb(60,31,78)" stroke="none" d="M 22077,4901 C 22132,4821 22118,4728 22043,4677 21966,4626 21874,4645 21820,4725 21767,4804 21779,4897 21854,4949 21934,5003 22025,4978 22077,4901 Z"/>
      </g>
     </g>
     <g class="com.sun.star.drawing.ClosedBezierShape">
      <g id="id85">
       <rect class="BoundingBox" stroke="none" fill="none" x="22214" y="4956" width="326" height="330"/>
       <path fill="rgb(60,31,78)" stroke="none" d="M 22501,5214 C 22559,5137 22549,5044 22476,4989 22402,4934 22309,4950 22251,5027 22195,5103 22203,5197 22276,5252 22353,5310 22443,5289 22501,5214 Z"/>
      </g>
     </g>
     <g class="com.sun.star.drawing.ClosedBezierShape">
      <g id="id86">
       <rect class="BoundingBox" stroke="none" fill="none" x="22627" y="5281" width="327" height="331"/>
       <path fill="rgb(60,31,78)" stroke="none" d="M 22910,5545 C 22971,5471 22966,5378 22896,5320 22824,5261 22731,5272 22669,5347 22609,5420 22613,5515 22683,5573 22758,5634 22850,5618 22910,5545 Z"/>
      </g>
     </g>
     <g class="com.sun.star.drawing.ClosedBezierShape">
      <g id="id87">
       <rect class="BoundingBox" stroke="none" fill="none" x="23024" y="5628" width="329" height="329"/>
       <path fill="rgb(60,31,78)" stroke="none" d="M 23303,5896 C 23368,5824 23367,5732 23299,5670 23230,5608 23136,5615 23071,5686 23008,5757 23007,5851 23075,5913 23147,5977 23240,5965 23303,5896 Z"/>
      </g>
     </g>
     <g class="com.sun.star.drawing.ClosedBezierShape">
      <g id="id88">
       <rect class="BoundingBox" stroke="none" fill="none" x="23405" y="5991" width="329" height="328"/>
       <path fill="rgb(60,31,78)" stroke="none" d="M 23679,6264 C 23747,6195 23750,6103 23686,6038 23621,5973 23526,5975 23457,6045 23391,6111 23386,6206 23451,6270 23520,6338 23613,6330 23679,6264 Z"/>
      </g>
     </g>
     <g class="com.sun.star.drawing.ClosedBezierShape">
      <g id="id89">
       <rect class="BoundingBox" stroke="none" fill="none" x="23769" y="6371" width="329" height="327"/>
       <path fill="rgb(60,31,78)" stroke="none" d="M 23827,6419 C 23758,6482 23748,6576 23810,6644 23875,6715 23969,6712 24038,6648 24109,6582 24117,6490 24055,6423 23993,6355 23898,6353 23827,6419 Z"/>
      </g>
     </g>
     <g class="com.sun.star.drawing.ClosedBezierShape">
      <g id="id90">
       <rect class="BoundingBox" stroke="none" fill="none" x="6665" y="9725" width="377" height="377"/>
       <path fill="rgb(60,31,78)" stroke="none" d="M 6853,9796 C 6884,9796 6913,9808 6936,9830 6958,9852 6970,9881 6970,9913 6970,9944 6958,9973 6936,9996 6914,10018 6884,10030 6853,10030 6822,10030 6792,10018 6770,9996 6748,9974 6736,9945 6736,9914 6736,9848 6788,9796 6852,9796 L 6853,9796 Z M 6853,10101 C 6903,10100 6951,10081 6987,10045 7022,10010 7041,9963 7041,9913 7041,9862 7021,9815 6986,9779 6950,9744 6903,9726 6852,9725 6749,9726 6665,9810 6665,9914 6666,9964 6685,10011 6721,10046 6756,10081 6803,10101 6853,10101 Z"/>
      </g>
     </g>
     <g class="com.sun.star.drawing.ClosedBezierShape">
      <g id="id91">
       <rect class="BoundingBox" stroke="none" fill="none" x="6697" y="10157" width="318" height="580"/>
       <path fill="rgb(60,31,78)" stroke="none" d="M 6819,10278 C 6828,10268 6841,10263 6855,10263 6883,10263 6906,10286 6906,10314 L 6907,10628 6805,10629 6804,10314 C 6804,10301 6809,10288 6819,10278 Z M 6855,10157 C 6767,10157 6697,10228 6697,10315 L 6698,10683 C 6699,10712 6722,10736 6751,10736 L 6752,10736 6961,10735 C 6975,10735 6988,10729 6998,10719 7008,10709 7014,10696 7013,10682 L 7012,10313 C 7012,10227 6941,10157 6855,10157 Z"/>
      </g>
     </g>
     <g class="com.sun.star.drawing.ClosedBezierShape">
      <g id="id92">
       <rect class="BoundingBox" stroke="none" fill="none" x="7825" y="10642" width="269" height="544"/>
       <path fill="rgb(60,31,78)" stroke="none" d="M 7959,10712 C 7975,10712 7991,10719 8002,10732 8015,10745 8021,10762 8021,10781 L 8023,11114 7898,11114 7897,10782 C 7897,10744 7925,10713 7959,10712 Z M 8054,10683 C 8028,10657 7995,10642 7959,10642 7885,10642 7825,10705 7825,10782 L 7827,11150 C 7827,11159 7830,11168 7837,11175 7844,11181 7853,11185 7862,11185 L 8058,11184 C 8068,11184 8077,11181 8083,11174 8090,11167 8093,11158 8093,11149 L 8092,10781 C 8092,10744 8078,10709 8054,10683 Z"/>
      </g>
     </g>
     <g class="com.sun.star.drawing.ClosedBezierShape">
      <g id="id93">
       <rect class="BoundingBox" stroke="none" fill="none" x="8881" y="9728" width="377" height="376"/>
       <path fill="rgb(60,31,78)" stroke="none" d="M 9068,10033 C 9037,10033 9008,10021 8986,9999 8964,9977 8952,9948 8951,9916 8951,9851 9003,9799 9068,9798 9132,9798 9186,9850 9186,9916 9186,9947 9174,9976 9151,9998 9129,10020 9100,10033 9069,10033 L 9068,10033 Z M 9068,9728 L 9067,9728 C 8964,9728 8880,9812 8881,9917 8881,9967 8901,10014 8936,10049 8972,10084 9018,10103 9068,10103 L 9069,10103 C 9119,10103 9167,10083 9202,10048 9237,10012 9257,9965 9256,9915 9256,9811 9172,9728 9068,9728 Z"/>
      </g>
     </g>
     <g class="com.sun.star.drawing.ClosedBezierShape">
      <g id="id94">
       <rect class="BoundingBox" stroke="none" fill="none" x="8913" y="10160" width="318" height="579"/>
       <path fill="rgb(60,31,78)" stroke="none" d="M 9034,10281 C 9044,10271 9058,10267 9071,10265 9099,10265 9122,10288 9122,10317 L 9123,10631 9021,10631 9019,10317 C 9019,10303 9025,10290 9034,10281 Z M 9071,10160 L 9070,10160 C 8983,10160 8912,10231 8913,10317 L 8914,10685 C 8914,10700 8920,10713 8930,10723 8939,10733 8953,10738 8967,10738 L 9176,10737 C 9206,10737 9229,10714 9229,10684 L 9228,10316 C 9227,10230 9157,10160 9071,10160 Z"/>
      </g>
     </g>
     <g class="com.sun.star.drawing.ClosedBezierShape">
      <g id="id95">
       <rect class="BoundingBox" stroke="none" fill="none" x="5654" y="11899" width="418" height="716"/>
       <path fill="rgb(60,31,78)" stroke="none" d="M 5789,12034 C 5808,12015 5834,12004 5861,12004 5917,12004 5962,12050 5962,12106 L 5963,12508 5760,12508 5760,12106 C 5759,12079 5770,12053 5789,12034 Z M 5707,12614 L 6016,12614 C 6046,12614 6070,12590 6070,12561 L 6069,12106 C 6069,11991 5975,11899 5861,11899 5805,11899 5753,11920 5714,11960 5675,11999 5654,12051 5654,12106 L 5654,12561 C 5654,12591 5678,12614 5707,12614 Z"/>
      </g>
     </g>
     <g class="com.sun.star.drawing.ClosedBezierShape">
      <g id="id96">
       <rect class="BoundingBox" stroke="none" fill="none" x="4097" y="11901" width="418" height="716"/>
       <path fill="rgb(60,31,78)" stroke="none" d="M 4232,12036 C 4252,12017 4277,12007 4304,12007 4361,12007 4407,12052 4407,12108 L 4407,12510 4203,12510 4203,12108 C 4203,12081 4213,12056 4232,12036 Z M 4150,12616 L 4151,12616 4460,12616 C 4489,12616 4513,12592 4513,12563 L 4512,12108 C 4512,11993 4419,11901 4304,11901 4249,11901 4197,11922 4157,11962 4118,12001 4097,12053 4097,12108 L 4098,12563 C 4098,12593 4121,12616 4150,12616 Z"/>
      </g>
     </g>
     <g class="com.sun.star.drawing.ClosedBezierShape">
      <g id="id97">
       <rect class="BoundingBox" stroke="none" fill="none" x="5724" y="11546" width="275" height="275"/>
       <path fill="rgb(60,31,78)" stroke="none" d="M 5860,11546 C 5785,11546 5724,11608 5724,11684 5724,11759 5785,11820 5861,11820 5937,11820 5998,11759 5998,11683 5998,11608 5937,11546 5860,11546 Z"/>
      </g>
     </g>
     <g class="com.sun.star.drawing.PolyPolygonShape">
      <g id="id98">
       <rect class="BoundingBox" stroke="none" fill="none" x="4118" y="11639" width="373" height="185"/>
       <path fill="rgb(60,31,78)" stroke="none" d="M 4490,11822 L 4490,11639 4118,11639 4119,11823 4490,11822 Z"/>
      </g>
     </g>
     <g class="com.sun.star.drawing.PolyPolygonShape">
      <g id="id99">
       <rect class="BoundingBox" stroke="none" fill="none" x="3153" y="13839" width="363" height="814"/>
       <path fill="rgb(60,31,78)" stroke="none" d="M 3154,14652 L 3515,14651 3514,13839 3153,13840 3154,14652 Z"/>
      </g>
     </g>
     <g class="com.sun.star.drawing.PolyPolygonShape">
      <g id="id100">
       <rect class="BoundingBox" stroke="none" fill="none" x="3972" y="13838" width="363" height="814"/>
       <path fill="rgb(60,31,78)" stroke="none" d="M 4334,14650 L 4333,13838 3972,13838 3973,14651 4334,14650 Z"/>
      </g>
     </g>
     <g class="com.sun.star.drawing.PolyPolygonShape">
      <g id="id101">
       <rect class="BoundingBox" stroke="none" fill="none" x="4747" y="13837" width="364" height="814"/>
       <path fill="rgb(60,31,78)" stroke="none" d="M 5110,14649 L 5109,13837 4748,13837 4750,14650 5110,14649 Z"/>
      </g>
     </g>
     <g class="com.sun.star.drawing.PolyPolygonShape">
      <g id="id102">
       <rect class="BoundingBox" stroke="none" fill="none" x="5547" y="13836" width="362" height="814"/>
       <path fill="rgb(60,31,78)" stroke="none" d="M 5908,14648 L 5907,13836 5547,13836 5548,14649 5908,14648 Z"/>
      </g>
     </g>
     <g class="com.sun.star.drawing.ClosedBezierShape">
      <g id="id103">
       <rect class="BoundingBox" stroke="none" fill="none" x="7666" y="12843" width="122" height="282"/>
       <path fill="rgb(60,31,78)" stroke="none" d="M 7666,12902 L 7666,12972 7666,13065 7666,13124 7786,13124 7785,13065 7785,12971 7785,12902 C 7785,12869 7758,12843 7725,12843 7693,12843 7665,12870 7666,12902 Z"/>
      </g>
     </g>
     <g class="com.sun.star.drawing.ClosedBezierShape">
      <g id="id104">
       <rect class="BoundingBox" stroke="none" fill="none" x="10593" y="12831" width="121" height="283"/>
       <path fill="rgb(60,31,78)" stroke="none" d="M 10713,12959 L 10712,12889 C 10712,12857 10686,12830 10653,12831 10619,12831 10593,12857 10593,12890 L 10593,12959 10594,13053 10594,13112 10713,13111 10713,13052 10713,12959 Z"/>
      </g>
     </g>
     <g class="com.sun.star.drawing.ClosedBezierShape">
      <g id="id105">
       <rect class="BoundingBox" stroke="none" fill="none" x="7617" y="14200" width="231" height="542"/>
       <path fill="rgb(60,31,78)" stroke="none" d="M 7731,14200 C 7667,14200 7617,14251 7617,14315 L 7617,14448 7618,14627 7619,14740 7847,14739 7847,14626 7846,14447 7845,14314 C 7845,14250 7794,14199 7731,14200 Z"/>
      </g>
     </g>
     <g class="com.sun.star.drawing.ClosedBezierShape">
      <g id="id106">
       <rect class="BoundingBox" stroke="none" fill="none" x="10537" y="14196" width="232" height="543"/>
       <path fill="rgb(60,31,78)" stroke="none" d="M 10766,14445 L 10766,14312 C 10765,14248 10714,14197 10651,14197 10588,14198 10537,14249 10537,14313 L 10538,14446 10538,14624 10539,14738 10768,14737 10767,14623 10766,14445 Z"/>
      </g>
     </g>
     <g class="com.sun.star.drawing.ClosedBezierShape">
      <g id="id107">
       <rect class="BoundingBox" stroke="none" fill="none" x="7613" y="13619" width="231" height="230"/>
       <path fill="rgb(60,31,78)" stroke="none" d="M 7729,13847 C 7791,13847 7843,13796 7843,13732 7843,13669 7790,13618 7728,13619 7665,13619 7614,13670 7614,13733 7615,13797 7666,13847 7729,13847 Z"/>
      </g>
     </g>
     <g class="com.sun.star.drawing.ClosedBezierShape">
      <g id="id108">
       <rect class="BoundingBox" stroke="none" fill="none" x="10542" y="13605" width="230" height="231"/>
       <path fill="rgb(60,31,78)" stroke="none" d="M 10656,13606 C 10593,13606 10542,13658 10542,13720 10542,13784 10594,13835 10657,13835 10720,13834 10771,13783 10771,13719 10770,13657 10719,13606 10656,13606 Z"/>
      </g>
     </g>
     <g class="com.sun.star.drawing.ClosedBezierShape">
      <g id="id109">
       <rect class="BoundingBox" stroke="none" fill="none" x="22156" y="12862" width="856" height="637"/>
       <path fill="rgb(60,31,78)" stroke="none" d="M 22515,13497 C 22519,13497 22523,13497 22527,13496 22555,13492 22578,13470 22584,13441 L 22643,13167 22897,13359 C 22921,13376 22952,13378 22977,13362 23002,13347 23015,13318 23009,13289 L 22940,12919 C 22932,12881 22895,12856 22857,12863 22819,12870 22794,12907 22801,12945 L 22837,13136 22640,12986 C 22620,12972 22594,12968 22571,12977 22549,12985 22532,13005 22527,13029 L 22484,13234 22288,12899 C 22268,12865 22225,12854 22191,12873 22157,12893 22146,12936 22166,12970 L 22455,13462 C 22467,13484 22491,13497 22515,13497 Z"/>
      </g>
     </g>
     <g class="com.sun.star.drawing.ClosedBezierShape">
      <g id="id110">
       <rect class="BoundingBox" stroke="none" fill="none" x="20749" y="12831" width="873" height="634"/>
       <path fill="rgb(60,31,78)" stroke="none" d="M 21585,13013 C 21552,12993 21508,13004 21488,13037 L 21355,13262 21242,13098 C 21222,13069 21183,13059 21152,13075 L 20916,13194 20970,12914 C 20977,12876 20952,12839 20914,12832 20875,12824 20838,12849 20831,12888 L 20750,13308 C 20745,13335 20756,13362 20777,13378 20798,13394 20827,13397 20851,13384 L 21160,13229 21300,13433 C 21313,13452 21335,13463 21359,13463 21359,13463 21360,13463 21361,13463 21385,13463 21407,13450 21419,13429 L 21610,13109 C 21630,13076 21619,13032 21585,13013 Z"/>
      </g>
     </g>
     <g class="com.sun.star.drawing.ClosedBezierShape">
      <g id="id111">
       <rect class="BoundingBox" stroke="none" fill="none" x="21210" y="11572" width="837" height="828"/>
       <path fill="rgb(60,31,78)" stroke="none" d="M 21924,12029 L 21773,12181 21734,11971 C 21728,11943 21708,11922 21681,11915 21655,11908 21627,11918 21609,11939 L 21509,12064 21560,11797 C 21565,11769 21553,11740 21529,11724 21505,11709 21474,11709 21451,11725 L 21437,11734 21464,11670 C 21479,11634 21462,11592 21426,11577 21390,11562 21349,11579 21334,11615 L 21215,11898 C 21203,11927 21211,11961 21236,11981 21260,12001 21295,12002 21321,11985 L 21389,11937 21318,12314 C 21312,12346 21328,12378 21358,12391 21367,12396 21377,12398 21387,12398 21408,12398 21428,12389 21442,12371 L 21623,12147 21660,12339 C 21665,12365 21683,12386 21708,12394 21733,12401 21761,12394 21779,12376 L 22024,12129 C 22052,12101 22052,12057 22024,12029 21997,12002 21952,12002 21924,12029 Z"/>
      </g>
     </g>
     <g class="com.sun.star.drawing.ClosedBezierShape">
      <g id="id112">
       <rect class="BoundingBox" stroke="none" fill="none" x="21990" y="10192" width="659" height="691"/>
       <path fill="rgb(60,31,78)" stroke="none" d="M 22120,10849 C 22133,10869 22155,10881 22178,10881 L 22179,10881 C 22202,10881 22224,10870 22237,10851 L 22324,10725 22536,10868 C 22561,10885 22594,10884 22618,10866 22643,10847 22653,10816 22644,10787 L 22463,10240 C 22451,10203 22411,10183 22374,10195 22337,10207 22317,10247 22329,10284 L 22444,10635 22346,10568 C 22314,10547 22270,10555 22248,10587 L 22181,10684 22119,10589 C 22098,10556 22054,10547 22021,10569 21989,10590 21980,10634 22001,10667 L 22120,10849 Z"/>
      </g>
     </g>
     <g class="com.sun.star.drawing.ClosedBezierShape">
      <g id="id113">
       <rect class="BoundingBox" stroke="none" fill="none" x="2095" y="4740" width="26989" height="10480"/>
       <path fill="rgb(60,31,78)" stroke="none" d="M 5049,11566 L 5055,11558 C 5059,11552 5062,11546 5064,11540 L 5067,11534 C 5069,11528 5071,11521 5072,11514 5072,11511 5072,11509 5072,11508 L 5073,11501 C 5074,11552 5106,11597 5153,11614 L 5171,11636 5172,12762 4995,12762 4993,11636 5049,11566 Z M 7431,10147 C 7432,10154 7433,10162 7435,10169 7434,10170 7432,10172 7431,10173 L 7431,10147 Z M 15300,6845 L 15300,10218 C 14906,10418 14653,10843 14695,11309 14704,11403 14725,11496 14756,11583 L 14418,11401 C 14380,11380 14340,11371 14301,11371 14215,11371 14133,11415 14087,11494 L 13631,12278 C 13602,12327 13581,12380 13570,12434 L 13003,12759 C 12748,12905 12659,13233 12806,13489 12901,13655 13079,13758 13270,13758 13357,13758 13442,13737 13520,13696 L 13977,14228 C 14026,14285 14095,14314 14164,14314 14218,14314 14272,14296 14318,14260 L 14887,13808 15300,14467 15300,14896 11288,14896 11282,13451 C 11324,13436 11354,13396 11354,13350 L 11353,13206 C 11353,13178 11342,13151 11322,13131 11302,13112 11275,13101 11247,13101 L 11170,13101 11169,12908 C 11171,12907 11172,12905 11173,12904 11193,12884 11204,12857 11204,12829 11202,12434 10897,12228 10756,12154 10759,12143 10761,12131 10761,12120 10761,12079 10741,12043 10709,12020 L 10708,11873 C 10708,11835 10676,11803 10637,11803 10619,11803 10601,11811 10588,11824 10574,11837 10567,11855 10567,11874 L 10568,12021 C 10536,12043 10516,12080 10516,12121 10517,12134 10519,12146 10522,12158 10509,12165 10495,12174 10479,12183 10460,12022 10413,11812 10282,11608 10151,11404 9946,11211 9721,11078 L 15170,6365 15170,6845 15300,6845 Z M 20984,10747 L 20885,10976 C 20862,11028 20878,11088 20923,11123 20945,11140 20971,11148 20997,11148 L 20529,12278 C 20508,12328 20523,12387 20566,12421 20582,12434 20599,12442 20618,12446 L 20081,13601 C 20056,13653 20072,13716 20118,13751 20147,13773 20183,13780 20217,13773 L 20173,13898 C 20159,13936 20165,13978 20188,14011 20212,14043 20249,14063 20290,14063 L 21757,14058 21760,14896 16523,14896 16633,14830 C 16756,14757 16844,14641 16879,14503 16915,14364 16894,14220 16821,14097 16726,13935 16549,13835 16361,13835 16301,13835 16242,13845 16186,13864 L 15908,13422 16192,13575 C 16229,13595 16269,13605 16309,13605 16377,13605 16443,13577 16491,13525 L 17420,12508 17421,12507 C 17517,12400 17565,12263 17557,12120 17550,11978 17487,11846 17380,11751 17282,11663 17155,11614 17023,11614 16951,11614 16880,11630 16814,11657 16889,11490 16923,11303 16905,11108 16880,10831 16752,10575 16546,10387 16351,10209 16100,10108 15837,10100 L 15837,6845 15968,6845 15968,6408 20984,10747 Z M 26830,14322 C 26899,14365 26977,14392 27058,14400 27154,14614 27340,14774 27565,14839 L 27564,14896 26830,14896 26830,14322 Z M 26416,13556 C 26472,13552 26528,13546 26583,13537 L 26583,13785 C 26579,13813 26576,13841 26576,13867 26576,13894 26578,13921 26583,13950 L 26583,14896 26417,14896 26416,13556 Z M 25913,13521 C 25996,13539 26082,13550 26169,13556 L 26170,14896 25913,14896 25913,13521 Z M 24767,14579 C 25065,14560 25342,14434 25553,14221 25594,14180 25632,14136 25666,14090 L 25666,14896 24747,14896 C 24763,14873 24771,14845 24771,14817 L 24767,14579 Z M 22355,14057 L 23685,14053 C 23859,14308 24127,14488 24429,14553 L 24431,14896 22358,14896 22355,14057 Z M 27210,14256 C 27200,14227 27173,14207 27143,14207 27141,14207 27139,14207 27137,14207 27128,14208 27119,14208 27109,14208 26922,14208 26770,14055 26770,13868 26771,13721 26864,13591 27004,13546 27027,13538 27044,13520 27050,13496 27056,13473 27050,13448 27034,13430 27014,13410 26999,13388 26985,13364 27125,13303 27256,13225 27374,13131 L 27623,13397 27621,13867 27319,13669 C 27287,13648 27243,13657 27222,13689 27200,13722 27209,13766 27242,13787 L 27621,14035 27618,14652 C 27428,14597 27273,14452 27210,14256 Z M 27624,13192 L 27482,13040 C 27533,12993 27580,12943 27625,12891 L 27624,13192 Z M 24630,8485 C 24634,8485 24639,8485 24643,8485 24846,8485 25038,8562 25185,8704 25334,8849 25418,9044 25422,9252 25422,9279 25421,9307 25418,9335 25417,9356 25424,9376 25438,9391 25452,9405 25472,9413 25493,9412 L 25502,9411 C 25504,9411 25506,9411 25508,9411 25613,9410 25712,9449 25787,9522 25863,9594 25905,9692 25907,9797 25908,9894 25874,9986 25811,10059 25524,10140 25261,10292 25045,10509 25007,10548 24970,10588 24936,10630 24851,10576 24754,10539 24651,10524 L 24645,10181 25196,9241 C 25216,9207 25205,9164 25171,9144 25137,9125 25094,9136 25074,9170 L 25004,9290 24998,8934 C 24998,8895 24966,8863 24927,8865 24888,8865 24856,8897 24857,8936 L 24866,9525 24641,9909 24625,8872 C 24624,8824 24585,8785 24537,8785 L 24535,8785 C 24487,8786 24448,8826 24449,8875 L 24474,10517 C 24427,10521 24381,10530 24337,10542 L 24102,10200 C 24102,10199 24102,10199 24102,10198 L 24095,9710 C 24094,9671 24062,9640 24023,9640 23984,9641 23953,9673 23954,9712 L 23958,9990 23743,9676 C 23721,9644 23677,9636 23645,9658 23613,9680 23605,9724 23627,9756 L 24090,10431 23719,10302 C 23682,10289 23641,10309 23629,10345 23616,10382 23635,10423 23672,10435 L 24172,10610 C 24112,10643 24056,10686 24006,10736 23871,10872 23795,11050 23789,11240 23678,11252 23574,11288 23482,11344 23485,11337 23487,11330 23487,11322 23488,11299 23476,11276 23457,11263 23393,11218 23354,11146 23353,11068 23351,10969 23410,10880 23503,10842 23526,10832 23543,10811 23546,10785 23549,10760 23538,10735 23517,10720 23318,10574 23201,10349 23197,10102 23191,9733 23448,9408 23808,9329 23840,9322 23863,9294 23863,9260 23865,8839 24209,8491 24630,8485 Z M 24649,12507 L 24648,12379 C 24659,12409 24672,12438 24685,12467 L 24649,12507 Z M 24655,13841 L 24650,12719 24753,12603 C 24832,12745 24931,12877 25049,12994 25120,13066 25197,13129 25277,13186 L 24655,13841 Z M 23920,13904 L 23817,13622 23902,13695 C 23928,13716 23965,13717 23991,13697 24017,13677 24026,13641 24012,13611 L 23453,12428 C 23454,12409 23448,12389 23434,12374 23429,12369 23424,12363 23419,12357 L 23416,12351 23449,12374 C 23475,12392 23511,12391 23535,12370 23560,12350 23567,12315 23553,12286 L 23309,11767 C 23391,11541 23607,11379 23861,11378 23881,11378 23899,11370 23913,11356 23926,11341 23933,11322 23931,11303 23931,11291 23930,11278 23930,11266 23929,11104 23992,10951 24106,10835 24220,10720 24372,10656 24535,10655 L 24538,10655 C 24650,10655 24757,10686 24850,10742 24764,10865 24694,10997 24642,11137 L 24642,11007 C 24641,10958 24601,10919 24553,10919 24504,10919 24465,10959 24465,11008 L 24470,12075 24031,11613 C 24004,11585 23960,11583 23932,11610 23903,11637 23902,11682 23929,11710 L 24471,12281 24475,13130 23905,12762 C 23872,12741 23829,12751 23808,12783 23787,12816 23796,12860 23829,12881 L 24476,13299 24481,14366 C 24242,14317 24030,14184 23881,13993 23893,13988 23904,13980 23911,13969 23924,13950 23928,13926 23920,13904 Z M 24693,14388 L 24688,14388 C 24678,14388 24668,14387 24658,14386 L 24656,14044 25397,13265 C 25497,13324 25602,13372 25710,13410 25687,13951 25241,14385 24693,14388 Z M 28019,12973 C 28027,12992 28044,13006 28063,13012 28206,13055 28306,13189 28305,13338 28305,13418 28277,13495 28226,13556 28203,13583 28204,13624 28229,13650 28337,13764 28397,13913 28396,14070 28396,14232 28333,14385 28218,14500 28104,14612 27954,14675 27795,14677 L 27795,14498 28268,14008 C 28295,13980 28294,13935 28266,13908 28238,13881 28193,13882 28166,13910 L 27796,14294 27799,13673 28092,13345 C 28118,13316 28115,13272 28086,13246 28057,13220 28013,13222 27987,13251 L 27799,13460 27803,12643 C 27836,12587 27866,12529 27893,12469 27990,12532 28054,12640 28054,12764 28054,12817 28042,12867 28020,12914 28011,12933 28011,12954 28019,12973 Z M 27906,11748 C 27907,12585 27269,13276 26453,13358 26550,13238 26638,13117 26719,12997 27171,12815 27504,12502 27518,12488 27546,12461 27548,12417 27521,12389 27494,12360 27449,12359 27421,12386 27418,12389 27187,12606 26859,12777 27029,12494 27156,12228 27244,12018 27498,11929 27644,11807 27650,11802 27680,11777 27683,11732 27658,11703 27633,11673 27588,11669 27559,11695 27558,11695 27471,11767 27316,11837 27376,11680 27405,11579 27409,11567 27420,11529 27398,11490 27361,11479 27323,11469 27284,11490 27273,11528 27272,11533 27199,11781 27038,12132 26983,11985 26970,11790 26971,11710 26972,11671 26940,11639 26901,11638 26861,11637 26830,11669 26830,11708 26830,11724 26828,12084 26961,12294 26818,12582 26623,12918 26367,13240 26347,13121 26319,12942 26289,12736 26474,12533 26661,11849 26777,11356 27024,11238 27255,10987 27265,10976 27292,10948 27290,10903 27261,10877 27232,10850 27188,10852 27161,10881 27159,10883 27002,11054 26819,11171 26862,10978 26889,10842 26892,10824 26900,10786 26875,10749 26837,10741 26798,10734 26761,10759 26754,10797 26731,10915 26694,11089 26649,11284 26547,11069 26546,10814 26546,10811 26546,10772 26515,10741 26476,10740 26437,10740 26405,10772 26405,10811 26405,10828 26406,11216 26602,11479 26504,11873 26379,12304 26259,12529 26251,12475 26244,12420 26236,12365 26246,12342 26242,12315 26227,12296 26210,12165 26193,12032 26179,11904 26434,11729 26465,11330 26466,11312 26469,11273 26440,11240 26401,11237 26362,11235 26328,11264 26325,11302 26325,11306 26304,11574 26163,11731 26123,11092 26271,10350 26273,10342 26281,10304 26256,10267 26218,10259 26179,10251 26142,10276 26135,10314 26130,10334 26075,10611 26041,10972 25926,10822 25855,10644 25854,10642 25840,10606 25799,10588 25763,10602 25727,10616 25709,10657 25723,10694 25728,10706 25840,10989 26026,11166 26011,11395 26009,11643 26034,11873 L 26034,11874 C 26043,11955 26052,12038 26063,12122 25997,12029 25930,11916 25887,11834 25868,11800 25826,11787 25791,11805 25757,11823 25744,11866 25762,11900 25795,11963 25955,12256 26095,12371 26132,12652 26173,12921 26204,13116 26154,13042 26104,12965 26054,12885 26056,12855 26039,12825 26009,12814 25859,12573 25711,12315 25580,12079 25586,12068 25589,12056 25588,12043 L 25562,11435 25844,11085 C 25869,11055 25864,11010 25834,10986 25803,10961 25759,10966 25734,10997 L 25553,11222 25529,10665 C 25527,10626 25493,10596 25455,10598 25416,10600 25386,10632 25388,10671 L 25419,11400 C 25417,11412 25417,11424 25421,11435 L 25437,11820 C 25429,11804 25420,11788 25412,11772 25413,11770 25414,11767 25414,11764 25421,11728 25399,11694 25364,11684 25220,11414 25126,11227 25124,11222 25106,11187 25064,11173 25029,11191 24994,11208 24980,11251 24998,11285 24999,11289 25052,11394 25138,11558 25076,11510 25016,11457 24975,11416 24947,11388 24903,11388 24875,11416 24848,11443 24848,11488 24875,11515 24900,11540 25098,11735 25267,11801 25409,12066 25594,12400 25787,12721 25375,12514 25058,12168 25055,12164 25029,12135 24984,12133 24955,12159 24926,12186 24924,12230 24950,12259 24959,12268 25053,12372 25205,12499 25087,12504 24989,12478 24987,12478 24950,12468 24911,12490 24901,12528 24891,12565 24913,12604 24951,12614 24956,12616 25050,12641 25172,12641 25229,12641 25293,12635 25356,12619 25513,12735 25706,12854 25916,12930 26013,13086 26111,13234 26205,13364 25806,13344 25433,13179 25148,12895 24843,12590 24674,12184 24673,11752 24673,11321 24840,10914 25145,10609 25450,10303 25856,10134 26288,10134 L 26290,10134 C 26721,10134 27126,10301 27431,10606 27737,10911 27905,11316 27906,11748 Z M 21880,13864 L 20389,13869 20545,13429 C 20556,13399 20545,13365 20519,13347 20507,13339 20493,13335 20479,13335 20462,13335 20446,13341 20433,13352 L 20395,13385 20958,12176 C 20971,12147 20963,12113 20939,12092 20914,12072 20879,12070 20853,12089 L 20802,12125 21337,10832 C 21350,10802 21340,10768 21315,10749 21289,10729 21253,10730 21228,10750 L 21176,10792 21787,9383 C 21799,9356 21792,9324 21771,9304 21750,9283 21719,9278 21692,9291 L 21661,9305 22054,8419 22535,9484 22511,9463 C 22486,9442 22450,9440 22423,9459 22397,9478 22387,9513 22399,9543 L 23021,11085 22954,11032 C 22928,11012 22892,11012 22866,11032 22841,11052 22833,11088 22846,11117 L 23312,12105 23278,12081 C 23252,12063 23217,12065 23192,12085 23168,12106 23160,12140 23174,12169 L 23744,13374 23706,13342 C 23682,13321 23646,13320 23620,13338 23594,13356 23583,13390 23594,13420 L 23753,13858 22262,13863 21995,13864 21880,13864 Z M 22161,14004 L 22163,14894 21954,14895 21951,14005 22161,14004 Z M 16132,12327 L 16059,12287 C 16112,12274 16164,12258 16214,12238 L 16132,12327 Z M 14941,11286 C 14898,10812 15248,10393 15722,10349 15749,10347 15775,10346 15801,10346 16242,10346 16618,10683 16659,11130 16702,11605 16353,12024 15878,12067 15852,12070 15825,12071 15799,12071 15358,12071 14982,11734 14941,11286 Z M 14240,13271 L 14565,13013 14786,12535 14518,12390 14342,12692 C 14288,12784 14192,12835 14093,12835 14043,12835 13994,12822 13948,12796 13810,12716 13764,12539 13844,12402 L 14300,11618 15043,12019 C 15046,12022 15050,12026 15054,12030 15193,12156 15360,12244 15539,12287 L 16183,12635 16809,11957 C 16865,11894 16944,11861 17023,11861 17092,11861 17160,11886 17215,11935 17334,12041 17344,12223 17238,12342 L 16309,13358 15663,13009 15534,13290 16099,14190 16214,14122 C 16260,14094 16311,14081 16361,14081 16459,14081 16555,14132 16609,14223 16690,14360 16645,14537 16508,14618 L 16038,14896 15861,14896 14950,13443 14164,14067 13574,13381 13413,13473 C 13368,13498 13319,13511 13270,13511 13170,13511 13073,13459 13020,13366 12941,13228 12988,13052 13126,12973 L 13701,12644 14240,13271 Z M 7426,10563 C 7443,10587 7470,10604 7501,10608 7488,10702 7460,10756 7446,10775 7438,10777 7431,10781 7424,10785 L 7426,10563 Z M 8471,10771 C 8456,10752 8428,10698 8415,10605 8438,10602 8459,10591 8476,10574 8480,10571 8483,10567 8486,10563 L 8486,10777 C 8481,10775 8476,10773 8471,10771 Z M 5392,11427 L 5434,11403 C 5450,11393 5461,11376 5461,11357 L 5460,11063 6258,11062 6259,11356 C 6259,11374 6269,11392 6286,11401 L 6328,11426 6135,11427 6135,11352 C 6135,11313 6104,11282 6065,11282 L 5641,11283 C 5623,11283 5605,11290 5592,11303 5578,11317 5571,11335 5571,11353 L 5571,11427 5392,11428 C 5392,11427 5392,11427 5392,11427 Z M 8033,9831 C 8012,9852 7984,9864 7955,9864 L 7954,9864 C 7925,9864 7897,9852 7876,9832 7855,9811 7843,9783 7843,9753 7843,9724 7855,9696 7876,9675 7897,9654 7924,9642 7954,9642 7984,9642 8012,9653 8033,9674 8054,9695 8065,9723 8065,9753 8066,9782 8054,9810 8033,9831 Z M 7954,9934 L 7955,9934 C 7962,9934 7969,9933 7976,9932 L 7976,9998 C 7976,10001 7972,10005 7968,10005 L 7942,10005 C 7938,10005 7935,10002 7935,9998 L 7935,9933 C 7941,9933 7948,9934 7954,9934 Z M 8315,9958 C 8315,9954 8319,9951 8323,9951 L 8349,9951 C 8353,9951 8356,9955 8356,9958 L 8357,10135 C 8357,10138 8353,10142 8350,10142 L 8324,10143 8323,10143 C 8320,10143 8316,10139 8316,10135 L 8315,9958 Z M 7554,9961 C 7554,9958 7558,9954 7561,9954 L 7587,9954 C 7591,9954 7595,9957 7595,9961 L 7595,10138 C 7595,10142 7592,10145 7588,10145 L 7562,10145 C 7558,10145 7555,10142 7555,10138 L 7554,9961 Z M 8522,11209 C 8355,11331 8205,11486 8104,11645 7972,11855 7928,12071 7912,12279 7843,12231 7782,12201 7752,12188 7769,12176 7780,12155 7780,12132 7780,12100 7758,12074 7728,12066 L 7728,11886 C 7728,11876 7720,11868 7710,11868 7700,11869 7692,11876 7692,11886 L 7693,12066 C 7663,12074 7642,12101 7642,12133 7642,12157 7654,12178 7673,12191 7615,12217 7461,12297 7347,12446 L 7387,11011 7477,11010 C 7506,11010 7530,10986 7530,10957 L 7530,10913 C 7532,10911 7535,10909 7537,10907 7597,10860 7667,10726 7666,10502 7666,10488 7660,10475 7650,10465 7640,10455 7625,10449 7613,10450 L 7566,10450 7566,10349 8348,10346 8348,10447 8301,10447 C 8287,10447 8274,10453 8264,10463 8254,10473 8248,10486 8248,10500 8249,10723 8320,10857 8380,10904 8383,10906 8385,10908 8388,10910 L 8388,10954 C 8388,10983 8412,11007 8441,11007 L 8528,11006 8522,11209 Z M 7138,13562 L 7144,14896 2753,14896 2751,13568 7138,13562 Z M 7246,12919 L 7247,13171 7117,13171 C 7088,13171 7065,13195 7065,13224 L 7065,13368 C 7065,13382 7071,13396 7081,13406 7091,13415 7104,13421 7118,13421 L 7137,13421 7138,13456 2872,13462 3674,12923 7246,12919 Z M 5642,11568 C 5660,11568 5678,11561 5692,11548 5705,11534 5712,11516 5712,11498 L 5712,11424 5994,11423 5994,11497 C 5994,11536 6025,11568 6065,11568 L 6401,11567 C 6395,11576 6391,11586 6391,11597 L 6393,12800 5331,12802 5329,11599 C 5329,11588 5326,11578 5319,11569 L 5642,11568 Z M 6582,9798 C 6596,9798 6609,9789 6615,9777 6653,9690 6749,9629 6848,9629 L 6849,9629 C 6948,9629 7043,9689 7082,9775 7088,9788 7099,9796 7115,9796 L 7277,9793 7248,12206 7238,12560 C 7237,12568 7239,12576 7243,12584 L 7242,12642 C 7225,12694 7214,12751 7212,12813 L 6499,12814 6497,11615 6536,11566 C 6569,11560 6594,11531 6594,11497 6594,11458 6563,11426 6524,11426 L 6463,11426 C 6444,11414 6424,11383 6416,11366 6414,11360 6410,11355 6406,11351 L 6409,11058 C 6438,11049 6458,11022 6458,10991 6458,10970 6449,10952 6434,10939 6430,10916 6423,10886 6412,10852 L 6425,9796 6582,9798 Z M 9498,11027 C 9496,11027 9494,11027 9491,11027 L 9258,11026 9182,10950 9210,10905 9273,10905 9241,10855 9273,10805 9209,10805 9167,10738 9125,10805 9062,10805 9094,10855 9062,10906 9125,10905 9154,10950 9078,11027 8845,11029 C 8838,11029 8831,11031 8825,11034 8765,11059 8705,11090 8646,11126 L 8642,9798 8797,9800 8798,9800 C 8812,9800 8824,9792 8830,9779 8868,9693 8964,9632 9063,9631 L 9064,9631 C 9163,9631 9259,9691 9298,9778 9303,9790 9316,9799 9330,9798 L 9494,9795 9498,11027 Z M 11194,13260 L 11195,13298 11176,13298 10647,13300 10099,13302 10098,13264 11194,13260 Z M 10177,14896 L 10171,13408 11123,13404 11130,14896 10177,14896 Z M 9993,13159 L 8363,13166 8698,12782 9655,12778 9993,13159 Z M 10173,12883 L 10174,13158 10130,13158 C 10127,13153 10124,13148 10120,13143 L 9796,12778 10141,12776 C 10139,12795 10138,12814 10138,12834 10139,12857 10153,12876 10173,12883 Z M 8235,13151 C 8231,13156 8228,13161 8226,13166 L 8190,13167 8189,12892 C 8209,12884 8223,12865 8223,12842 8223,12822 8222,12803 8220,12784 L 8557,12783 8235,13151 Z M 9652,14263 C 9683,14197 9700,14124 9700,14046 9699,13761 9466,13530 9181,13530 L 9179,13530 C 8893,13531 8661,13765 8662,14051 8663,14128 8680,14201 8711,14267 L 8306,14609 8301,13416 8320,13416 C 8350,13416 8373,13392 8373,13363 L 8373,13272 9993,13265 9993,13356 C 9993,13370 9999,13383 10009,13393 10019,13403 10032,13408 10046,13408 L 10065,13408 10070,14610 9652,14263 Z M 8307,14747 L 8767,14359 C 8861,14485 9012,14567 9181,14567 L 9183,14567 C 9353,14566 9504,14483 9598,14356 L 10071,14748 10071,14896 8308,14896 8307,14747 Z M 8768,14050 C 8767,13823 8952,13636 9179,13635 L 9181,13635 C 9408,13635 9593,13820 9594,14047 9595,14274 9410,14460 9183,14461 8954,14462 8769,14278 8768,14050 Z M 7351,12899 L 7550,12898 C 7579,12898 7603,12874 7602,12845 7602,12779 7650,12726 7710,12726 7738,12726 7765,12738 7785,12759 7806,12781 7818,12811 7818,12844 7818,12858 7824,12871 7834,12881 7843,12891 7857,12896 7871,12896 L 8069,12895 8083,12895 8084,13167 7731,13169 7353,13170 7351,12899 Z M 7171,13315 L 7171,13277 8267,13272 8267,13310 8249,13310 8248,13310 7190,13315 7171,13315 Z M 7243,13420 L 8196,13416 8202,14896 7250,14896 7243,13420 Z M 10996,12883 L 10997,12883 11011,12883 11012,13155 10280,13158 10279,12886 10477,12885 C 10491,12885 10505,12880 10515,12870 10525,12860 10530,12846 10530,12832 10530,12800 10541,12770 10562,12747 10583,12725 10609,12713 10637,12713 L 10638,12713 C 10666,12713 10692,12725 10712,12746 10734,12769 10745,12799 10746,12831 10746,12845 10751,12859 10761,12869 10771,12878 10785,12884 10799,12884 L 10996,12883 Z M 8857,11135 L 8943,11134 C 8871,11242 8729,11476 8677,11708 8618,11967 8619,12504 8621,12677 L 8202,12679 C 8168,12544 8093,12440 8013,12363 8023,12145 8058,11917 8194,11702 8341,11469 8601,11247 8857,11135 Z M 9562,11728 C 9620,11973 9624,12505 9624,12673 L 8727,12676 C 8725,12508 8724,11976 8780,11731 8845,11445 9068,11139 9071,11136 9071,11135 9072,11133 9073,11132 L 9112,11132 9225,11131 9265,11132 C 9265,11133 9266,11134 9266,11135 9269,11138 9495,11441 9562,11728 Z M 5858,10138 C 5878,10138 5893,10154 5893,10173 L 5893,10220 5894,10241 5894,10349 5823,10349 5823,10241 5823,10220 5823,10173 C 5823,10154 5839,10138 5858,10138 Z M 10148,11694 C 10289,11911 10324,12143 10335,12364 10259,12441 10191,12542 10158,12670 L 9729,12672 C 9730,12500 9726,11962 9666,11704 9611,11473 9467,11240 9394,11132 L 9480,11132 C 9738,11242 9999,11462 10148,11694 Z M 8796,9048 L 9334,9046 9335,9046 C 9368,9046 9400,9059 9424,9083 9448,9106 9461,9138 9461,9172 L 9461,9202 C 9461,9227 9440,9249 9414,9249 L 8717,9251 C 8691,9251 8670,9230 8670,9204 L 8670,9175 C 8670,9105 8726,9048 8796,9048 Z M 8911,8571 L 9215,8570 C 9224,8570 9231,8575 9233,8577 9236,8580 9241,8586 9241,8595 9241,8610 9229,8621 9215,8621 L 8911,8622 C 8902,8622 8896,8618 8893,8615 8890,8612 8886,8606 8886,8597 8886,8588 8890,8581 8893,8579 8896,8576 8902,8571 8911,8571 Z M 6580,9045 L 7119,9043 C 7153,9043 7184,9056 7208,9080 7232,9104 7245,9135 7245,9169 L 7245,9199 C 7246,9211 7241,9223 7232,9232 7223,9241 7211,9246 7199,9246 L 6502,9249 C 6489,9249 6477,9244 6468,9235 6459,9226 6455,9214 6455,9202 L 6454,9172 C 6454,9102 6511,9045 6580,9045 Z M 6696,8620 C 6687,8620 6681,8615 6678,8612 6675,8609 6670,8603 6670,8594 6670,8585 6675,8579 6678,8576 6680,8573 6686,8568 6696,8568 L 7000,8567 C 7009,8567 7015,8572 7018,8575 7021,8578 7025,8584 7025,8593 7025,8607 7014,8619 7000,8619 L 6696,8620 Z M 4085,11553 C 4106,11553 4126,11540 4134,11520 4134,11519 4182,11408 4303,11408 4420,11408 4457,11512 4458,11516 4465,11538 4485,11552 4508,11552 L 4857,11552 4846,11566 C 4838,11576 4834,11587 4835,11599 L 4836,12813 3774,12814 3773,11601 C 3772,11589 3768,11577 3761,11568 L 3749,11553 4085,11553 Z M 3835,11429 L 3877,11405 C 3894,11395 3904,11378 3904,11359 L 3904,11158 4702,11156 4703,11358 C 4703,11377 4713,11394 4729,11404 L 4771,11428 C 4774,11433 4778,11439 4782,11446 L 4543,11446 C 4508,11383 4432,11302 4303,11302 4162,11302 4085,11396 4053,11447 L 3824,11447 C 3829,11441 3832,11434 3835,11429 Z M 4372,10316 L 4742,10316 4742,10519 4373,10502 4372,10316 Z M 2253,15213 L 15858,15213 C 15875,15217 15892,15219 15909,15219 15926,15219 15943,15217 15960,15213 L 28924,15213 C 29012,15213 29083,15142 29083,15054 29083,14967 29012,14896 28924,14896 L 27847,14896 27847,14868 C 28039,14855 28217,14774 28354,14637 28506,14486 28590,14285 28591,14070 28591,13899 28536,13731 28434,13593 28477,13515 28499,13428 28499,13339 28500,13150 28398,12973 28236,12878 28244,12841 28248,12803 28248,12765 28248,12585 28158,12416 28011,12315 28063,12155 28092,11989 28098,11818 28128,11796 28156,11771 28182,11744 28313,11609 28383,11432 28380,11244 28378,11079 28318,10922 28211,10797 28296,10669 28339,10520 28337,10365 28333,10122 28216,9898 28021,9758 28051,9693 28066,9622 28065,9549 28063,9421 28012,9302 27920,9213 27855,9150 27777,9108 27691,9089 27663,8687 27324,8366 26917,8366 L 26904,8366 C 26787,8368 26672,8397 26567,8450 26528,8243 26397,8063 26211,7962 26215,7922 26217,7882 26217,7841 26209,7351 25804,6952 25314,6952 L 25299,6952 C 24811,6960 24417,7356 24410,7841 24244,7858 24091,7931 23975,8052 23943,8084 23915,8120 23890,8158 23859,8109 23822,8064 23780,8023 23636,7884 23444,7807 23242,7810 22840,7816 22516,8137 22499,8533 22444,8541 22390,8556 22339,8579 L 22166,8195 C 22146,8151 22102,8122 22053,8122 22005,8122 21961,8151 21941,8196 L 21406,9401 C 21386,9448 21396,9503 21433,9539 21450,9556 21471,9567 21494,9571 L 21080,10525 15968,6102 15968,5442 15837,5442 15837,4812 C 15837,4773 15806,4741 15767,4741 L 15371,4741 C 15332,4741 15300,4773 15300,4812 L 15300,5442 15170,5442 15170,6059 9656,10827 9653,9823 C 9663,9814 9671,9803 9676,9790 9688,9756 9680,9718 9653,9694 9653,9693 9652,9692 9650,9691 9645,9663 9628,9638 9603,9622 L 9588,9613 C 9553,9561 9514,9484 9499,9389 9521,9379 9542,9365 9560,9347 9599,9308 9620,9256 9620,9201 L 9620,9171 C 9619,9030 9514,8911 9377,8890 9346,8845 9329,8789 9321,8746 9370,8712 9400,8656 9400,8595 9399,8546 9380,8499 9345,8465 9321,8440 9289,8424 9255,8416 9189,8294 9163,8123 9154,8040 9186,8013 9205,7973 9205,7929 9205,7884 9184,7842 9149,7816 L 9148,7700 9151,7700 C 9200,7700 9239,7660 9239,7611 9239,7563 9199,7523 9151,7523 L 9148,7523 9147,7479 C 9147,7430 9108,7391 9059,7391 9010,7391 8971,7431 8971,7479 L 8971,7524 8968,7524 C 8919,7524 8880,7564 8880,7613 8880,7661 8920,7700 8969,7700 L 8972,7700 8972,7816 C 8937,7843 8917,7885 8917,7930 8917,7974 8936,8014 8969,8041 8960,8124 8935,8295 8870,8418 8836,8425 8805,8442 8780,8467 8746,8502 8727,8548 8727,8597 8727,8647 8746,8693 8781,8728 8789,8735 8798,8742 8807,8748 8798,8791 8783,8847 8752,8893 8692,8902 8637,8930 8594,8973 8540,9027 8511,9099 8511,9175 L 8511,9205 C 8512,9288 8561,9360 8634,9392 8620,9487 8580,9564 8546,9616 L 8531,9626 C 8507,9642 8490,9666 8485,9694 8483,9696 8482,9697 8482,9698 8455,9722 8447,9760 8460,9794 8465,9807 8473,9819 8483,9828 L 8484,10174 C 8482,10171 8479,10168 8477,10165 8479,10155 8481,10145 8481,10135 L 8480,9958 C 8480,9923 8466,9890 8441,9865 8417,9841 8384,9827 8349,9827 L 8322,9827 C 8287,9828 8255,9841 8230,9866 8205,9891 8192,9924 8192,9959 L 8192,10002 C 8162,9995 8131,9988 8099,9984 L 8099,9936 C 8155,9892 8189,9824 8189,9752 8189,9689 8164,9631 8120,9586 8075,9543 8017,9518 7954,9518 7824,9519 7719,9624 7720,9754 7720,9826 7754,9894 7811,9937 L 7811,9985 C 7779,9990 7748,9996 7718,10004 L 7718,9960 C 7718,9925 7704,9893 7680,9868 7655,9844 7622,9830 7587,9830 L 7561,9830 C 7499,9830 7448,9873 7434,9930 L 7435,9822 C 7446,9813 7455,9801 7460,9787 7473,9753 7464,9715 7438,9691 7437,9691 7436,9690 7435,9688 7429,9660 7412,9635 7388,9620 L 7373,9610 C 7338,9558 7298,9481 7283,9386 7356,9354 7405,9281 7404,9198 L 7404,9169 C 7404,9092 7374,9021 7320,8967 7277,8924 7221,8897 7161,8888 7130,8842 7114,8787 7106,8744 7155,8710 7184,8654 7184,8592 7184,8543 7165,8497 7130,8462 7105,8438 7074,8421 7040,8413 6974,8291 6947,8121 6938,8037 6970,8010 6990,7970 6989,7927 6989,7881 6968,7840 6933,7813 L 6933,7697 6936,7697 C 6984,7697 7024,7657 7024,7609 7023,7560 6984,7521 6935,7521 L 6932,7521 6932,7476 C 6932,7428 6892,7388 6843,7388 6795,7388 6755,7428 6755,7477 L 6756,7521 6753,7521 C 6704,7522 6665,7561 6665,7610 6665,7658 6704,7698 6753,7698 L 6756,7698 6757,7814 C 6722,7841 6701,7882 6701,7928 6701,7971 6721,8011 6753,8038 6745,8121 6720,8292 6654,8415 6572,8434 6511,8508 6511,8595 6512,8656 6542,8712 6591,8746 6583,8789 6567,8844 6536,8890 6399,8912 6295,9031 6296,9173 L 6296,9202 C 6296,9285 6345,9357 6418,9390 6404,9484 6365,9562 6331,9614 L 6315,9624 C 6292,9639 6275,9663 6269,9692 6268,9694 6267,9695 6266,9695 6240,9720 6231,9758 6244,9791 6249,9804 6256,9814 6266,9823 L 6257,10528 C 6214,10493 6173,10470 6141,10456 L 6140,10010 C 6140,9987 6133,9965 6120,9947 6143,9910 6151,9869 6142,9828 6124,9745 6048,9714 6001,9695 5998,9694 5996,9692 5993,9691 5986,9669 5976,9625 5969,9575 5968,9568 5966,9561 5963,9555 L 5963,9404 5990,9404 C 6018,9403 6044,9392 6064,9372 6084,9352 6095,9326 6095,9298 6095,9239 6048,9192 5989,9192 L 5963,9192 C 5963,9134 5915,9086 5857,9086 5798,9086 5751,9134 5751,9192 L 5725,9192 C 5666,9192 5619,9240 5619,9298 5619,9356 5667,9404 5725,9404 L 5751,9404 5752,9580 C 5742,9629 5731,9671 5724,9691 5720,9693 5716,9694 5713,9696 5667,9714 5591,9746 5574,9829 5565,9870 5573,9911 5596,9948 5583,9966 5576,9988 5576,10011 L 5576,10456 C 5519,10483 5435,10535 5361,10634 5284,10737 5250,10841 5235,10916 5218,10937 5208,10965 5208,10993 5208,11051 5248,11099 5301,11113 L 5302,11296 5299,11297 C 5280,11308 5265,11325 5256,11345 5251,11355 5243,11367 5237,11375 L 5196,11375 C 5163,11375 5132,11388 5109,11411 5086,11434 5073,11465 5073,11497 5073,11493 5072,11490 5072,11487 L 5071,11480 C 5070,11473 5068,11467 5065,11460 L 5058,11445 C 5055,11440 5052,11435 5048,11431 L 5044,11426 C 5038,11420 5031,11414 5023,11409 L 5020,11407 C 5014,11404 5007,11401 4999,11398 L 4994,11396 C 4984,11394 4976,11392 4969,11393 4963,11393 4946,11391 4935,11384 4929,11380 4915,11361 4908,11346 4898,11326 4883,11309 4864,11298 L 4861,11296 4861,11205 C 4905,11191 4937,11150 4937,11102 4936,11045 4888,10998 4831,10998 L 4426,10998 4426,10699 4808,10716 C 4842,10717 4874,10705 4898,10682 4922,10659 4936,10626 4936,10593 L 4936,10245 C 4936,10212 4923,10181 4900,10157 4876,10134 4845,10121 4812,10121 L 4301,10122 C 4269,10122 4237,10135 4214,10158 4191,10182 4178,10213 4178,10246 L 4179,10567 C 4179,10569 4179,10571 4179,10572 L 4179,10998 3775,10999 C 3717,10999 3670,11046 3669,11104 3669,11152 3701,11193 3745,11206 L 3745,11298 3742,11299 C 3723,11311 3708,11327 3699,11347 3693,11360 3678,11381 3672,11385 3661,11392 3643,11395 3640,11395 3631,11395 3622,11396 3614,11398 L 3606,11400 C 3599,11403 3593,11406 3588,11408 L 3582,11412 C 3575,11417 3568,11422 3563,11428 L 3559,11433 C 3555,11437 3551,11442 3548,11447 L 3541,11462 C 3539,11468 3537,11475 3536,11481 3535,11484 3535,11486 3535,11488 3534,11492 3534,11496 3534,11501 3534,11504 3534,11507 3534,11508 3534,11511 3535,11514 3535,11516 3536,11524 3538,11531 3540,11536 L 3542,11541 C 3545,11548 3548,11554 3552,11560 L 3614,11638 3615,12773 C 3610,12775 3604,12778 3599,12782 L 2639,13427 C 2633,13431 2627,13436 2621,13442 2619,13444 2618,13446 2616,13448 2613,13452 2610,13457 2607,13461 2605,13464 2604,13466 2603,13469 2600,13474 2598,13479 2597,13484 L 2595,13491 C 2593,13499 2592,13507 2592,13515 L 2594,14896 2253,14896 C 2166,14896 2095,14967 2095,15054 2095,15142 2166,15213 2253,15213 Z"/>
      </g>
     </g>
     <g class="com.sun.star.drawing.ClosedBezierShape">
      <g id="id114">
       <rect class="BoundingBox" stroke="none" fill="none" x="2095" y="18181" width="26990" height="3413"/>
       <path fill="rgb(60,31,78)" stroke="none" d="M 29012,21301 C 28962,21269 27776,20508 25551,19737 23503,19028 20155,18181 15840,18181 11526,18181 8043,19027 5881,19736 3534,20506 2228,21265 2174,21297 2098,21341 2073,21438 2117,21514 2147,21564 2200,21593 2254,21593 2282,21593 2309,21585 2335,21571 2348,21563 3665,20797 5980,20038 8120,19336 11567,18498 15840,18498 20105,18498 23412,19333 25435,20033 27628,20791 28827,21559 28839,21567 28913,21615 29011,21594 29059,21520 29106,21446 29085,21348 29012,21301 Z"/>
      </g>
     </g>
     <g class="com.sun.star.drawing.ClosedBezierShape">
      <g id="id115">
       <rect class="BoundingBox" stroke="none" fill="none" x="2762" y="20323" width="25655" height="5813"/>
       <path fill="rgb(60,31,78)" stroke="none" d="M 28343,21611 C 28312,21591 27574,21117 26175,20547 L 25666,20336 C 25595,20305 25514,20330 25472,20395 23274,23739 19469,25817 15541,25817 11591,25817 7914,23835 5704,20516 5666,20458 5594,20432 5528,20452 L 5088,20580 C 5083,20581 5079,20583 5075,20584 3649,21137 2873,21588 2841,21607 2765,21652 2740,21749 2784,21825 2828,21900 2926,21926 3001,21881 3009,21877 3788,21424 5183,20883 L 5505,20789 C 6585,22377 8042,23705 9725,24634 11504,25615 13516,26134 15541,26134 17575,26134 19607,25598 21416,24585 23119,23631 24586,22282 25665,20679 L 26054,20840 C 27424,21399 28163,21873 28170,21878 28244,21925 28342,21904 28390,21831 28438,21757 28416,21659 28343,21611 Z"/>
      </g>
     </g>
     <g class="com.sun.star.drawing.ClosedBezierShape">
      <g id="id116">
       <rect class="BoundingBox" stroke="none" fill="none" x="25567" y="20974" width="2055" height="1192"/>
       <path fill="rgb(60,31,78)" stroke="none" d="M 27549,21871 C 27524,21855 26926,21470 25789,20987 25709,20952 25614,20990 25580,21070 25546,21151 25583,21244 25665,21279 26774,21751 27370,22134 27376,22138 27403,22156 27433,22164 27462,22164 27514,22164 27565,22138 27596,22091 27643,22018 27622,21918 27549,21871 Z"/>
      </g>
     </g>
     <g class="com.sun.star.drawing.ClosedBezierShape">
      <g id="id117">
       <rect class="BoundingBox" stroke="none" fill="none" x="3556" y="21042" width="2027" height="1123"/>
       <path fill="rgb(60,31,78)" stroke="none" d="M 5363,21054 C 4257,21505 3660,21854 3635,21868 3559,21912 3534,22010 3578,22085 3608,22136 3661,22164 3715,22164 3743,22164 3770,22157 3795,22142 3801,22139 4400,21789 5483,21348 5564,21315 5603,21222 5570,21141 5537,21060 5444,21021 5363,21054 Z"/>
      </g>
     </g>
     <g class="com.sun.star.drawing.ClosedBezierShape">
      <g id="id118">
       <rect class="BoundingBox" stroke="none" fill="none" x="9114" y="19677" width="13107" height="1122"/>
       <path fill="rgb(60,31,78)" stroke="none" d="M 22195,19922 C 22242,19849 22221,19751 22147,19703 22073,19656 21975,19678 21928,19751 21923,19758 21451,20478 20782,20478 20113,20478 19641,19758 19636,19751 19606,19705 19555,19679 19499,19678 19444,19679 19393,19709 19365,19757 19361,19764 18933,20478 18224,20478 17514,20478 17086,19764 17082,19757 17053,19707 16999,19676 16942,19678 16884,19679 16832,19712 16805,19762 16801,19770 16416,20478 15666,20478 14921,20478 14543,19791 14528,19762 14502,19713 14452,19682 14397,19679 14341,19675 14288,19701 14257,19747 14252,19754 13745,20478 13109,20478 12473,20478 11966,19754 11961,19747 11931,19703 11880,19678 11826,19678 11772,19680 11723,19709 11695,19754 11690,19762 11245,20478 10552,20478 9859,20478 9413,19762 9409,19754 9363,19680 9266,19656 9191,19701 9116,19747 9092,19844 9137,19919 9159,19955 9678,20797 10552,20797 11183,20797 11629,20357 11836,20100 12056,20354 12523,20797 13109,20797 13689,20797 14153,20362 14376,20107 14573,20367 14999,20797 15666,20797 16325,20797 16748,20378 16949,20116 17158,20376 17593,20797 18224,20797 18863,20797 19301,20365 19507,20106 19723,20363 20175,20797 20782,20797 21626,20797 22172,19958 22195,19922 Z"/>
      </g>
     </g>
     <g class="com.sun.star.drawing.ClosedBezierShape">
      <g id="id119">
       <rect class="BoundingBox" stroke="none" fill="none" x="11672" y="21455" width="7992" height="1120"/>
       <path fill="rgb(60,31,78)" stroke="none" d="M 19583,21477 C 19508,21433 19411,21458 19366,21534 19362,21541 18934,22256 18225,22256 17515,22256 17087,21541 17083,21534 17054,21484 16999,21455 16943,21455 16885,21456 16833,21489 16806,21540 16802,21547 16417,22256 15667,22256 14922,22256 14544,21568 14529,21540 14503,21491 14453,21459 14398,21456 14342,21453 14289,21478 14258,21524 14253,21531 13746,22256 13110,22256 12476,22256 11969,21536 11961,21524 11912,21452 11813,21434 11741,21483 11668,21533 11650,21632 11699,21704 11724,21739 12306,22574 13110,22574 13690,22574 14154,22140 14377,21885 14574,22146 15000,22574 15667,22574 16326,22574 16749,22156 16950,21895 17159,22154 17594,22574 18225,22574 19118,22574 19620,21730 19640,21694 19685,21618 19659,21521 19583,21477 Z"/>
      </g>
     </g>
     <g class="com.sun.star.drawing.ClosedBezierShape">
      <g id="id120">
       <rect class="BoundingBox" stroke="none" fill="none" x="2448" y="15795" width="1359" height="4848"/>
       <path fill="rgb(60,31,78)" stroke="none" d="M 3806,16793 L 3806,15795 2448,15795 2448,20642 C 2582,20574 2889,20427 3081,20338 L 3081,18796 3702,18796 3702,17798 3081,17798 3081,16793 3806,16793 Z"/>
      </g>
     </g>
     <g class="com.sun.star.drawing.ClosedBezierShape">
      <g id="id121">
       <rect class="BoundingBox" stroke="none" fill="none" x="4019" y="15795" width="1634" height="3786"/>
       <path fill="rgb(60,31,78)" stroke="none" d="M 4023,15795 L 4023,17852 C 4023,18403 3929,19579 4837,19579 5706,19579 5651,18403 5651,17852 L 5651,15795 5169,15795 5169,17820 C 5169,18733 5132,19112 4842,19112 4553,19112 4514,18727 4514,17820 L 4514,15795 4023,15795 Z"/>
      </g>
     </g>
     <g class="com.sun.star.drawing.ClosedBezierShape">
      <g id="id122">
       <rect class="BoundingBox" stroke="none" fill="none" x="5788" y="15795" width="1551" height="3334"/>
       <path fill="rgb(60,31,78)" stroke="none" d="M 6808,18984 L 6808,16545 7338,16545 7338,15795 5788,15795 5788,16545 6319,16545 6319,19128 C 6477,19080 6640,19032 6808,18984 Z"/>
      </g>
     </g>
     <g class="com.sun.star.drawing.ClosedBezierShape">
      <g id="id123">
       <rect class="BoundingBox" stroke="none" fill="none" x="7407" y="15761" width="1925" height="2803"/>
       <path fill="rgb(60,31,78)" stroke="none" d="M 7963,16759 C 8004,16642 8060,16552 8131,16488 8202,16424 8281,16391 8368,16391 8456,16391 8535,16424 8605,16488 8677,16552 8733,16642 8775,16759 8816,16876 8836,17010 8836,17161 8836,17312 8816,17446 8775,17563 8733,17680 8677,17770 8605,17834 8535,17898 8456,17930 8368,17930 8281,17930 8202,17898 8131,17834 8060,17770 8004,17680 7963,17563 7922,17446 7901,17312 7901,17161 7901,17010 7922,16876 7963,16759 Z M 7531,16441 C 7448,16654 7407,16894 7407,17161 7407,17428 7448,17667 7531,17880 7615,18093 7729,18261 7875,18381 8021,18502 8185,18562 8368,18562 8551,18562 8716,18502 8862,18381 9008,18261 9123,18093 9206,17880 9289,17667 9331,17428 9331,17161 9331,16894 9289,16654 9206,16441 9123,16229 9008,16062 8862,15941 8716,15821 8551,15761 8368,15761 8185,15761 8021,15821 7875,15941 7729,16062 7615,16229 7531,16441 Z"/>
      </g>
     </g>
     <g class="com.sun.star.drawing.PolyPolygonShape">
      <g id="id124">
       <rect class="BoundingBox" stroke="none" fill="none" x="8126" y="15409" width="643" height="248"/>
       <path fill="rgb(60,31,78)" stroke="none" d="M 8767,15409 L 8342,15409 8126,15655 8462,15655 8767,15409 Z"/>
      </g>
     </g>
     <g class="com.sun.star.drawing.ClosedBezierShape">
      <g id="id125">
       <rect class="BoundingBox" stroke="none" fill="none" x="9587" y="15795" width="1695" height="2533"/>
       <path fill="rgb(60,31,78)" stroke="none" d="M 10741,15795 L 10071,16848 10071,15795 9587,15795 9587,18327 9613,18327 C 9763,18299 9916,18271 10071,18245 L 10071,17694 10254,17409 10653,18150 C 10827,18123 11004,18097 11184,18073 L 10573,16917 11281,15795 10741,15795 Z"/>
      </g>
     </g>
     <g class="com.sun.star.drawing.ClosedBezierShape">
      <g id="id126">
       <rect class="BoundingBox" stroke="none" fill="none" x="11224" y="15795" width="1877" height="2273"/>
       <path fill="rgb(60,31,78)" stroke="none" d="M 12190,16428 L 12406,17160 11974,17160 12190,16428 Z M 11835,17636 L 12545,17636 12625,17907 C 12782,17893 12941,17880 13100,17867 L 12427,15795 11960,15795 11224,18067 C 11389,18045 11557,18023 11726,18003 L 11835,17636 Z"/>
      </g>
     </g>
     <g class="com.sun.star.drawing.ClosedBezierShape">
      <g id="id127">
       <rect class="BoundingBox" stroke="none" fill="none" x="13307" y="15795" width="1317" height="2051"/>
       <path fill="rgb(60,31,78)" stroke="none" d="M 13307,15795 L 13307,17845 13403,17845 C 13801,17818 14208,17797 14623,17784 L 14623,17384 13796,17384 13796,15795 13307,15795 Z"/>
      </g>
     </g>
     <g class="com.sun.star.drawing.ClosedBezierShape">
      <g id="id128">
       <rect class="BoundingBox" stroke="none" fill="none" x="14688" y="15795" width="1930" height="1988"/>
       <path fill="rgb(60,31,78)" stroke="none" d="M 15429,17020 L 15647,16363 15866,17020 15429,17020 Z M 15415,15795 L 14688,17782 C 14851,17777 15015,17773 15180,17771 L 15289,17447 16006,17447 16115,17770 C 16283,17773 16451,17777 16617,17781 L 15887,15795 15415,15795 Z"/>
      </g>
     </g>
     <g class="com.sun.star.drawing.ClosedBezierShape">
      <g id="id129">
       <rect class="BoundingBox" stroke="none" fill="none" x="16777" y="15795" width="1649" height="2090"/>
       <path fill="rgb(60,31,78)" stroke="none" d="M 17180,15795 L 16777,15795 16777,17786 C 16939,17792 17099,17798 17257,17806 L 17257,16774 17993,17850 C 18139,17861 18282,17872 18425,17884 L 18425,15795 17945,15795 17945,16912 17180,15795 Z"/>
      </g>
     </g>
     <g class="com.sun.star.drawing.ClosedBezierShape">
      <g id="id130">
       <rect class="BoundingBox" stroke="none" fill="none" x="18770" y="15794" width="1786" height="2240"/>
       <path fill="rgb(60,31,78)" stroke="none" d="M 19925,17382 C 19835,17491 19716,17546 19568,17546 L 19259,17546 19259,16305 19568,16305 C 19716,16305 19835,16360 19925,16470 20015,16580 20060,16732 20060,16926 20060,17120 20015,17272 19925,17382 Z M 20092,15934 C 19945,15842 19777,15795 19588,15795 L 18770,15795 18770,17916 C 19125,17950 19470,17990 19806,18033 19909,18011 20005,17973 20092,17918 20239,17825 20352,17694 20433,17524 20514,17354 20555,17155 20555,16926 20555,16697 20514,16498 20433,16328 20352,16158 20239,16027 20092,15934 Z"/>
      </g>
     </g>
     <g class="com.sun.star.drawing.ClosedBezierShape">
      <g id="id131">
       <rect class="BoundingBox" stroke="none" fill="none" x="20722" y="15761" width="1926" height="2562"/>
       <path fill="rgb(60,31,78)" stroke="none" d="M 22089,17409 C 22048,17515 21992,17598 21921,17657 21850,17715 21771,17745 21684,17745 21597,17745 21517,17715 21447,17657 21376,17598 21320,17515 21279,17409 21237,17302 21217,17180 21217,17041 21217,16903 21237,16781 21279,16674 21320,16566 21376,16484 21447,16425 21517,16367 21597,16337 21684,16337 21771,16337 21850,16367 21921,16425 21992,16484 22048,16566 22089,16674 22132,16781 22152,16903 22152,17041 22152,17180 22132,17302 22089,17409 Z M 22178,15926 C 22031,15816 21867,15761 21684,15761 21501,15761 21337,15816 21191,15926 21045,16036 20930,16188 20847,16383 20764,16577 20722,16798 20722,17041 20722,17285 20764,17504 20847,17699 20930,17893 21045,18046 21191,18156 21337,18266 21501,18321 21684,18321 21867,18321 22031,18266 22178,18156 22324,18046 22438,17893 22522,17699 22605,17504 22647,17285 22647,17041 22647,16798 22605,16577 22522,16383 22438,16188 22324,16036 22178,15926 Z"/>
      </g>
     </g>
     <g class="com.sun.star.drawing.ClosedBezierShape">
      <g id="id132">
       <rect class="BoundingBox" stroke="none" fill="none" x="22903" y="15795" width="1716" height="3280"/>
       <path fill="rgb(60,31,78)" stroke="none" d="M 23892,17197 C 23841,17271 23765,17308 23665,17308 L 23393,17308 23393,16449 23665,16449 C 23765,16449 23841,16487 23892,16562 23943,16638 23969,16744 23969,16881 23969,17017 23943,17123 23892,17197 Z M 24376,17436 C 24434,17278 24463,17093 24463,16881 24463,16660 24432,16468 24369,16304 24307,16141 24218,16015 24102,15927 23987,15839 23851,15795 23695,15795 L 22903,15795 22903,18603 C 23070,18643 23234,18684 23393,18725 L 23393,17949 23660,17949 24026,18897 C 24231,18956 24429,19015 24618,19074 L 24125,17807 C 24233,17717 24317,17594 24376,17436 Z"/>
      </g>
     </g>
     <g class="com.sun.star.drawing.ClosedBezierShape">
      <g id="id133">
       <rect class="BoundingBox" stroke="none" fill="none" x="24643" y="15761" width="1925" height="3606"/>
       <path fill="rgb(60,31,78)" stroke="none" d="M 26011,18080 C 25969,18231 25912,18347 25842,18429 25771,18512 25692,18553 25604,18553 25517,18553 25438,18512 25367,18429 25296,18347 25240,18231 25199,18080 25158,17930 25137,17758 25137,17563 25137,17369 25158,17196 25199,17046 25240,16896 25296,16779 25367,16697 25438,16615 25517,16573 25604,16573 25692,16573 25771,16615 25842,16697 25912,16779 25969,16896 26011,17046 26052,17196 26072,17369 26072,17563 26072,17758 26052,17930 26011,18080 Z M 25604,15761 C 25421,15761 25257,15838 25111,15993 24965,16148 24851,16364 24768,16638 24684,16912 24643,17220 24643,17563 24643,17906 24684,18215 24768,18489 24851,18763 24965,18977 25111,19132 25257,19287 25421,19365 25604,19365 25787,19365 25952,19287 26098,19132 26244,18977 26359,18763 26442,18489 26525,18215 26567,17906 26567,17563 26567,17220 26525,16912 26442,16638 26359,16364 26244,16148 26098,15993 25952,15838 25787,15761 25604,15761 Z"/>
      </g>
     </g>
     <g class="com.sun.star.drawing.ClosedBezierShape">
      <g id="id134">
       <rect class="BoundingBox" stroke="none" fill="none" x="26822" y="15795" width="1735" height="4924"/>
       <path fill="rgb(60,31,78)" stroke="none" d="M 26823,15795 L 26823,19877 C 26996,19950 27158,20021 27308,20089 L 27308,18869 27491,18407 27916,20378 C 28190,20515 28403,20631 28556,20718 L 27810,17611 28517,15795 27978,15795 27308,17500 27308,15795 26823,15795 Z"/>
      </g>
     </g>
    </g>
   </g>
  </g>
 </g>
</svg>