<?xml version="1.0" encoding="utf-8"?>
<!-- Generator: Adobe Illustrator 22.0.1, SVG Export Plug-In . SVG Version: 6.00 Build 0)  -->
<svg version="1.1" id="tanszek" xmlns="http://www.w3.org/2000/svg" xmlns:xlink="http://www.w3.org/1999/xlink" x="0px" y="0px"
	 viewBox="0 0 254.3 83.8" style="enable-background:new 0 0 254.3 83.8;" xml:space="preserve">
<style type="text/css">
	.st0{fill:#51ADCA;}
	.st1{fill:#242943;}
	.st2{display:none;fill:#242943;}
</style>
<circle id="tsz_vilagos" class="st0" cx="46.1" cy="30.1" r="5"/>
<path class="st1" d="M90,18.9h3.1V33H90V18.9z M106,18.9h3.1V33H106l-6.7-8.8V33h-3.1V18.9h2.9L106,28V18.9z M121.8,18.9v2.8h-6.5v3
	h6.2v2.8h-6.2V33h-3.1V18.9H121.8z M135.9,31c-1.4,1.4-3.2,2.1-5.3,2.1c-2.1,0-3.8-0.7-5.3-2.1c-1.4-1.4-2.1-3.1-2.1-5.2
	s0.7-3.8,2.1-5.2c1.4-1.4,3.2-2.1,5.3-2.1c2.1,0,3.8,0.7,5.3,2.1s2.1,3.1,2.1,5.2S137.3,29.6,135.9,31z M134.8,25.9
	c0-1.3-0.4-2.3-1.2-3.2c-0.8-0.9-1.8-1.3-3-1.3s-2.2,0.4-3,1.3c-0.8,0.9-1.2,2-1.2,3.2s0.4,2.3,1.2,3.2c0.8,0.9,1.8,1.3,3,1.3
	s2.2-0.4,3-1.3S134.8,27.1,134.8,25.9z M151.6,23.6c0,2.3-0.9,3.7-2.7,4.4l3.6,5h-3.9l-3.1-4.5h-2.2V33h-3.1V18.9h5.3
	c2.2,0,3.8,0.4,4.7,1.1C151.2,20.7,151.6,21.9,151.6,23.6z M147.8,25.2c0.4-0.3,0.6-0.9,0.6-1.7s-0.2-1.3-0.6-1.6s-1.1-0.4-2.1-0.4
	h-2.4v4.2h2.3C146.7,25.8,147.4,25.6,147.8,25.2z M167,24.1l-3.8,7.7h-1.9l-3.8-7.7V33h-3.1V18.9h4.3l3.6,7.7l3.7-7.7h4.2V33H167
	V24.1z M183.2,33l-1.3-3h-5.9l-1.3,3h-3.3l6.1-14.1h3l6.1,14.1H183.2z M178.9,23.1l-1.8,4.1h3.5L178.9,23.1z M193.6,21.6V33h-3.1
	V21.6h-4v-2.7h11.1v2.7H193.6z M199.4,18.9h3.1V33h-3.1V18.9z M205.6,18.9h3.1v5.8l5.3-5.8h3.9l-5.6,6.2c0.5,0.7,1.4,1.9,2.7,3.8
	c1.3,1.8,2.3,3.2,2.9,4.1h-3.7l-4.1-5.6l-1.4,1.6v4h-3.1V18.9z M229.5,33l-1.3-3h-5.9l-1.3,3h-3.3l6.1-14.1h3l6.1,14.1H229.5z
	 M225.2,23.1l-1.8,4.1h3.5L225.2,23.1z M96,41.2v11.4h-3.1V41.2h-4v-2.7H100v2.7H96z M111.8,52.6l-1.3-3h-5.9l-1.3,3H100l6.1-14.1h3
	l6.1,14.1H111.8z M107.6,42.7l-1.8,4.1h3.5L107.6,42.7z M126.2,38.5h3.1v14.1h-3.1l-6.7-8.8v8.8h-3.1V38.5h2.9l6.9,9.1V38.5z
	 M135.6,41.3c-0.3,0.2-0.5,0.6-0.5,1s0.2,0.7,0.6,1s1.2,0.5,2.6,0.9s2.4,0.8,3.1,1.5c0.7,0.7,1.1,1.6,1.1,2.9s-0.5,2.3-1.4,3.1
	c-0.9,0.8-2.2,1.2-3.7,1.2c-2.2,0-4.2-0.8-6-2.5l1.9-2.3c1.5,1.3,2.9,2,4.2,2c0.6,0,1-0.1,1.4-0.4c0.3-0.2,0.5-0.6,0.5-1
	c0-0.4-0.2-0.8-0.5-1c-0.3-0.2-1-0.5-2.1-0.8c-1.6-0.4-2.8-0.9-3.6-1.5s-1.1-1.6-1.1-2.9s0.5-2.4,1.4-3.1c1-0.7,2.2-1.1,3.6-1.1
	c0.9,0,1.9,0.2,2.8,0.5s1.8,0.8,2.5,1.4l-1.6,2.3c-1.2-0.9-2.5-1.4-3.8-1.4C136.4,40.9,135.9,41.1,135.6,41.3z M143.9,52.6v-2.2
	l7.4-9.2h-7.1v-2.7h11.4v2.2l-7.4,9.2h7.5v2.7H143.9z M168.1,38.5v2.8h-7v2.9h6.3v2.7h-6.3v2.9h7.2v2.8H158V38.5H168.1z M164.2,37.1
	h-2.9l2.6-3.6l3.1,1.3L164.2,37.1z M170.7,38.5h3.1v5.8l5.3-5.8h3.9l-5.6,6.2c0.5,0.7,1.4,1.9,2.7,3.8c1.3,1.8,2.3,3.2,2.9,4.1h-3.7
	l-4.1-5.6l-1.4,1.6v4h-3.1V38.5z M92.2,59.8c0.4,0.4,0.6,0.9,0.6,1.6s-0.2,1.2-0.6,1.6s-1,0.6-1.9,0.6h-1.4v-4.3h1.5
	C91.2,59.3,91.8,59.5,92.2,59.8z M92.1,61.4c0-1-0.6-1.5-1.7-1.5h-0.7v3h0.8c0.5,0,0.9-0.1,1.2-0.4C91.9,62.3,92.1,61.9,92.1,61.4z
	 M96.8,59.3V60h-2.3v1.2h2.1v0.7h-2.1v1.2h2.4v0.7h-3.1v-4.3H96.8z M100.8,59.6c0.3,0.3,0.5,0.6,0.5,1.2c0,0.5-0.2,0.9-0.5,1.2
	c-0.3,0.2-0.8,0.4-1.4,0.4h-0.8v1.3h-0.7v-4.3h1.5C100,59.3,100.4,59.4,100.8,59.6z M100.2,61.4c0.1-0.2,0.2-0.4,0.2-0.7
	s-0.1-0.5-0.3-0.6c-0.2-0.1-0.5-0.2-0.9-0.2h-0.7v1.7h0.9C99.8,61.7,100.1,61.6,100.2,61.4z M102.7,62.6l-0.4,1h-0.8l1.9-4.3h0.8
	l1.9,4.3h-0.8l-0.4-1H102.7z M104.6,61.9l-0.8-1.8l-0.8,1.8H104.6z M110.2,60.7c0,0.7-0.3,1.2-0.9,1.4l1.1,1.6h-0.9l-1-1.5h-1v1.5
	h-0.7v-4.3h1.6c0.7,0,1.1,0.1,1.4,0.3C110,59.8,110.2,60.2,110.2,60.7z M109.2,61.3c0.1-0.1,0.2-0.3,0.2-0.6c0-0.3-0.1-0.5-0.2-0.6
	c-0.2-0.1-0.4-0.2-0.8-0.2h-0.9v1.6h0.9C108.7,61.5,109,61.4,109.2,61.3z M112.8,59.9v3.7h-0.7v-3.7h-1.3v-0.7h3.4v0.7H112.8z
	 M115.7,63.6H115v-4.3h1.1l1.3,2.7l1.3-2.7h1.1v4.3h-0.7v-3.4l-1.5,3h-0.4l-1.5-3V63.6z M124.1,59.3V60h-2.3v1.2h2.1v0.7h-2.1v1.2
	h2.4v0.7h-3.1v-4.3H124.1z M128.4,59.3h0.7v4.3h-0.8l-2.5-3.2v3.2h-0.7v-4.3h0.7l2.5,3.2V59.3z M132,59.9v3.7h-0.7v-3.7h-1.3v-0.7
	h3.4v0.7H132z M139.4,63c-0.4,0.4-1,0.6-1.6,0.6s-1.2-0.2-1.6-0.6c-0.4-0.4-0.7-1-0.7-1.6c0-0.6,0.2-1.2,0.7-1.6s1-0.6,1.6-0.6
	s1.2,0.2,1.6,0.6c0.4,0.4,0.7,1,0.7,1.6C140.1,62,139.9,62.6,139.4,63z M138.9,60.3c-0.3-0.3-0.7-0.5-1.1-0.5
	c-0.4,0-0.8,0.2-1.1,0.5c-0.3,0.3-0.4,0.7-0.4,1.1c0,0.4,0.1,0.8,0.4,1.1c0.3,0.3,0.7,0.5,1.1,0.5c0.4,0,0.8-0.2,1.1-0.5
	c0.3-0.3,0.4-0.7,0.4-1.1C139.3,61,139.2,60.6,138.9,60.3z M141.7,60v1.2h1.9v0.7h-1.9v1.8H141v-4.3h2.9l0,0.7H141.7z M148.5,62.9
	c0.3,0,0.5,0,0.7-0.1c0.2-0.1,0.4-0.2,0.6-0.4l0.5,0.5c-0.5,0.5-1,0.8-1.7,0.8c-0.7,0-1.2-0.2-1.6-0.6c-0.4-0.4-0.6-1-0.6-1.6
	s0.2-1.2,0.7-1.6c0.4-0.4,1-0.6,1.7-0.6c0.7,0,1.2,0.2,1.7,0.7l-0.5,0.5c-0.2-0.2-0.4-0.3-0.6-0.4c-0.2-0.1-0.4-0.1-0.7-0.1
	c-0.4,0-0.8,0.1-1.1,0.4c-0.3,0.3-0.4,0.6-0.4,1.1s0.1,0.8,0.4,1.1C147.7,62.8,148.1,62.9,148.5,62.9z M154.7,63
	c-0.4,0.4-1,0.6-1.6,0.6s-1.2-0.2-1.6-0.6c-0.4-0.4-0.7-1-0.7-1.6c0-0.6,0.2-1.2,0.7-1.6s1-0.6,1.6-0.6s1.2,0.2,1.6,0.6
	c0.4,0.4,0.7,1,0.7,1.6C155.3,62,155.1,62.6,154.7,63z M154.1,60.3c-0.3-0.3-0.7-0.5-1.1-0.5c-0.4,0-0.8,0.2-1.1,0.5
	c-0.3,0.3-0.4,0.7-0.4,1.1c0,0.4,0.1,0.8,0.4,1.1c0.3,0.3,0.7,0.5,1.1,0.5c0.4,0,0.8-0.2,1.1-0.5c0.3-0.3,0.4-0.7,0.4-1.1
	C154.6,61,154.4,60.6,154.1,60.3z M157,63.6h-0.7v-4.3h1.1l1.3,2.7l1.3-2.7h1.1v4.3h-0.7v-3.4l-1.5,3h-0.4l-1.5-3V63.6z M165.3,59.6
	c0.3,0.3,0.5,0.6,0.5,1.2c0,0.5-0.2,0.9-0.5,1.2c-0.3,0.2-0.8,0.4-1.4,0.4h-0.8v1.3h-0.7v-4.3h1.5C164.5,59.3,165,59.4,165.3,59.6z
	 M164.8,61.4c0.1-0.2,0.2-0.4,0.2-0.7s-0.1-0.5-0.3-0.6c-0.2-0.1-0.5-0.2-0.9-0.2h-0.7v1.7h0.9C164.4,61.7,164.6,61.6,164.8,61.4z
	 M167.6,62.6c0.2,0.2,0.5,0.3,0.8,0.3s0.6-0.1,0.8-0.3c0.2-0.2,0.3-0.5,0.3-0.9v-2.4h0.7v2.4c0,0.6-0.2,1.1-0.5,1.4
	c-0.3,0.3-0.8,0.5-1.3,0.5c-0.5,0-1-0.2-1.3-0.5c-0.3-0.3-0.5-0.8-0.5-1.4v-2.4h0.7v2.4C167.3,62.1,167.4,62.4,167.6,62.6z
	 M173,59.9v3.7h-0.7v-3.7H171v-0.7h3.4v0.7H173z M178.2,59.3V60h-2.3v1.2h2.1v0.7h-2.1v1.2h2.4v0.7h-3.1v-4.3H178.2z M182.7,60.7
	c0,0.7-0.3,1.2-0.9,1.4l1.1,1.6H182l-1-1.5h-1v1.5h-0.7v-4.3h1.6c0.7,0,1.1,0.1,1.4,0.3S182.7,60.2,182.7,60.7z M181.7,61.3
	c0.1-0.1,0.2-0.3,0.2-0.6c0-0.3-0.1-0.5-0.2-0.6s-0.4-0.2-0.8-0.2H180v1.6h0.9C181.3,61.5,181.6,61.4,181.7,61.3z M186.8,59.8
	c-0.2,0-0.4,0-0.5,0.1s-0.2,0.2-0.2,0.4s0.1,0.3,0.2,0.4c0.1,0.1,0.4,0.2,0.9,0.3c0.4,0.1,0.8,0.3,1,0.5c0.2,0.2,0.3,0.5,0.3,0.9
	c0,0.4-0.1,0.7-0.4,0.9s-0.7,0.4-1.1,0.4c-0.7,0-1.3-0.2-1.8-0.7l0.5-0.6c0.4,0.4,0.9,0.6,1.4,0.6c0.2,0,0.4-0.1,0.6-0.2
	s0.2-0.2,0.2-0.4s-0.1-0.3-0.2-0.4c-0.1-0.1-0.4-0.2-0.7-0.3s-0.6-0.1-0.7-0.2c-0.2-0.1-0.3-0.1-0.4-0.3c-0.3-0.2-0.4-0.5-0.4-0.9
	s0.1-0.7,0.4-0.9c0.3-0.2,0.7-0.3,1.1-0.3c0.3,0,0.6,0,0.8,0.1c0.3,0.1,0.5,0.2,0.7,0.4l-0.4,0.6c-0.1-0.1-0.3-0.2-0.5-0.3
	C187.2,59.9,187,59.8,186.8,59.8z M191.4,62.9c0.3,0,0.5,0,0.7-0.1c0.2-0.1,0.4-0.2,0.6-0.4l0.5,0.5c-0.5,0.5-1,0.8-1.7,0.8
	c-0.7,0-1.2-0.2-1.6-0.6c-0.4-0.4-0.6-1-0.6-1.6s0.2-1.2,0.7-1.6c0.4-0.4,1-0.6,1.7-0.6c0.7,0,1.2,0.2,1.7,0.7l-0.5,0.5
	c-0.2-0.2-0.4-0.3-0.6-0.4c-0.2-0.1-0.4-0.1-0.7-0.1c-0.4,0-0.8,0.1-1.1,0.4c-0.3,0.3-0.4,0.6-0.4,1.1s0.1,0.8,0.4,1.1
	C190.6,62.8,190.9,62.9,191.4,62.9z M193.9,59.3h0.7v4.3h-0.7V59.3z M198.9,59.3V60h-2.3v1.2h2.1v0.7h-2.1v1.2h2.4v0.7h-3.1v-4.3
	H198.9z M203.2,59.3h0.7v4.3h-0.8l-2.5-3.2v3.2H200v-4.3h0.7l2.5,3.2V59.3z M207.1,62.9c0.3,0,0.5,0,0.7-0.1
	c0.2-0.1,0.4-0.2,0.6-0.4l0.5,0.5c-0.5,0.5-1,0.8-1.7,0.8c-0.7,0-1.2-0.2-1.6-0.6c-0.4-0.4-0.6-1-0.6-1.6s0.2-1.2,0.7-1.6
	c0.4-0.4,1-0.6,1.7-0.6c0.7,0,1.2,0.2,1.7,0.7l-0.5,0.5c-0.2-0.2-0.4-0.3-0.6-0.4c-0.2-0.1-0.4-0.1-0.7-0.1c-0.4,0-0.8,0.1-1.1,0.4
	c-0.3,0.3-0.4,0.6-0.4,1.1s0.1,0.8,0.4,1.1C206.4,62.8,206.7,62.9,207.1,62.9z M212.8,59.3V60h-2.3v1.2h2.1v0.7h-2.1v1.2h2.4v0.7
	h-3.1v-4.3H212.8z M39.6,55c1.1,3.6,4.2,4.3,7.5,4.3c5.1,0.1,9.9-1.2,14.2-3.8c3.5-2.1,6-4.9,7.3-8.3c3.5-8.8,1-17.5-6.7-23.3
	c-5.2-3.9-11-5.5-17.4-4.7c-5.9,0.7-11.3,3.2-15.9,7.6c-1.1,1-2,2.2-2.7,3.3c-5.3,8-5.9,16-1.7,23.8c2.9,5.2,7.4,9.1,13.4,11.5
	c2.9,1.2,6,1.7,9.4,1.7c1.4,0,2.8-0.1,4.2-0.3c5.2-0.7,10-2.5,14.3-5.3c0.2-0.1,0.6-0.3,0.7-0.8c0-0.2,0-0.6-0.3-0.9l0-0.1
	c-0.1-0.2-0.4-0.6-0.9-0.6c-0.3-0.1-0.7,0-1,0.3c-0.4,0.3-0.8,0.6-1.3,0.8c-4.4,2.5-9.6,3.9-14.7,4c-5.5,0-7.9-0.6-12.1-3
	C28.2,56.8,24,48.8,25.4,40.3c1.2-7.1,5.4-12.4,12-15.9c4-2.1,8.2-2.8,12.6-2.2c3.6,0.5,7,1.9,10.2,4.3c5.6,4.2,7.9,9.4,6.8,16
	c-1.4,8.8-8.5,12.3-14.3,13.6c0-0.2,0-1.6,0-1.8c0-0.2,0-0.8,0-0.9c0-1.2,0-1.4,0-2c0-1.8,0-1.9,0-2.7c0-0.4,0-0.9,0-1.8
	c0-0.9,0-1.8,0-2.8c0-1.3,0-3.1,0-4.5c0-2.5-0.3-2.5-2.1-2.5l-0.2,0c-0.1,0-0.1,0-0.2,0c-0.9,0-4-0.1-8,0c-2.4,0.1-3.1,0.1-3.1,2.1
	c0,0,0,1.6,0,1.7c0,4.3,0,4.3,0,6.5c0,0.5,0,1.4,0,1.8C39,51.9,38.7,52.3,39.6,55z M232.9,63.2V61c0-0.2-0.2-0.3-0.3-0.3h-14
	c-0.2,0-0.3,0.2-0.3,0.3v2.2c0,0.2,0.2,0.3,0.3,0.3h14C232.7,63.6,232.9,63.4,232.9,63.2z"/>
<rect x="0.2" y="-1" class="st2" width="311.8" height="204.1"/>
</svg>
